<svg xmlns="http://www.w3.org/2000/svg" width="519.74" height="126.013" viewBox="0 0 519.74 126.013">
  <g id="Group_13304" data-name="Group 13304" transform="translate(-8079.736 7055)">
    <path id="Path_9856" data-name="Path 9856" d="M0,0H519.74V126.01H0Z" transform="translate(8079.736 -7055)" fill="#eee"/>
    <g id="g10" transform="translate(8079.736 -6928.987)">
      <g id="g12">
        <path id="path14" d="M201.537-54.627l-3.472-8.026-3.575,8.026Zm.584,1.271h-8.232l-.98,2.268a5.029,5.029,0,0,0-.481,1.875,1.552,1.552,0,0,0,.789,1.443,6.591,6.591,0,0,0,2.287.414v.635h-7.752v-.635a3.507,3.507,0,0,0,2.063-1.031,14.03,14.03,0,0,0,1.993-3.523l8.336-18.6h.327L208.876-51.4a11.6,11.6,0,0,0,1.976,3.419,2.69,2.69,0,0,0,1.651.62v.635H201.226v-.635h.465a3.522,3.522,0,0,0,1.907-.38.918.918,0,0,0,.379-.789,2.079,2.079,0,0,0-.1-.635q-.036-.156-.516-1.289l-1.237-2.906h0" fill-rule="evenodd"/>
        <path id="path16" d="M226.787-62.792v12.581a4.664,4.664,0,0,0,.344,2.3,1.987,1.987,0,0,0,1.392.568v.62h-6.548V-48.87a8.423,8.423,0,0,1-2.3,2.01,5.367,5.367,0,0,1-2.577.62,3.859,3.859,0,0,1-2.424-.825,4.141,4.141,0,0,1-1.409-1.961,14.405,14.405,0,0,1-.36-3.9V-59.3a4.534,4.534,0,0,0-.344-2.271,2.009,2.009,0,0,0-1.392-.583v-.635h6.548V-51.81a9.648,9.648,0,0,0,.155,2.219,1.543,1.543,0,0,0,.516.755,1.38,1.38,0,0,0,.825.258,2.01,2.01,0,0,0,1.117-.325,7.185,7.185,0,0,0,1.649-1.8V-59.3a4.518,4.518,0,0,0-.344-2.271,2.006,2.006,0,0,0-1.392-.583v-.635h6.548"/>
        <path id="path18" d="M239.77-63.239l.257,5.484h-.584a8.557,8.557,0,0,0-2.183-3.336,3.589,3.589,0,0,0-2.235-.893,1.671,1.671,0,0,0-1.2.482,1.438,1.438,0,0,0-.5,1.083,1.418,1.418,0,0,0,.344.893,16.583,16.583,0,0,0,3.077,2.422,12.341,12.341,0,0,1,3.316,2.906,4.622,4.622,0,0,1,.808,2.664,5.648,5.648,0,0,1-.671,2.63,4.7,4.7,0,0,1-1.891,1.977,5.43,5.43,0,0,1-2.7.687,9.408,9.408,0,0,1-3.076-.721,2.512,2.512,0,0,0-.7-.19q-.568,0-.945.859h-.568l-.275-5.776h.584a7.5,7.5,0,0,0,2.115,3.4,4.111,4.111,0,0,0,2.561,1.135,1.845,1.845,0,0,0,1.34-.5,1.655,1.655,0,0,0,.532-1.237,2.128,2.128,0,0,0-.515-1.427,13.456,13.456,0,0,0-2.3-1.82,18.059,18.059,0,0,1-3.4-2.786,4.838,4.838,0,0,1-1.135-3.109,5.043,5.043,0,0,1,1.272-3.352,4.612,4.612,0,0,1,3.713-1.513,5.411,5.411,0,0,1,2.527.635,1.668,1.668,0,0,0,.755.258.911.911,0,0,0,.5-.12,3.549,3.549,0,0,0,.6-.74h.584"/>
        <path id="path20" d="M248.279-68.67v5.878H252.1v1.7h-3.816v9.919a8.258,8.258,0,0,0,.12,1.8,1.4,1.4,0,0,0,.464.651,1.042,1.042,0,0,0,.6.242q1.116,0,2.113-1.7l.516.378q-1.392,3.3-4.52,3.3a4.053,4.053,0,0,1-2.6-.844,3.81,3.81,0,0,1-1.341-1.906,16.4,16.4,0,0,1-.171-3.164v-8.68h-2.1v-.6a21.836,21.836,0,0,0,3.679-3.214,19.438,19.438,0,0,0,2.664-3.763h.567"/>
        <path id="path22" d="M259.942-62.792v3.643a11.6,11.6,0,0,1,2.8-3.3,4.125,4.125,0,0,1,2.32-.826,2,2,0,0,1,1.529.6,2.258,2.258,0,0,1,.585,1.667,2.6,2.6,0,0,1-.568,1.789,1.7,1.7,0,0,1-1.34.635,2.326,2.326,0,0,1-1.581-.586,9.386,9.386,0,0,0-.791-.651.742.742,0,0,0-.4-.1,1.45,1.45,0,0,0-.944.378,3.572,3.572,0,0,0-1.067,1.667,11.7,11.7,0,0,0-.549,3.68v3.7l.017.964a3.956,3.956,0,0,0,.12,1.253,1.416,1.416,0,0,0,.6.687,3.743,3.743,0,0,0,1.375.258v.62h-8.679v-.62a1.879,1.879,0,0,0,1.409-.568,5.3,5.3,0,0,0,.377-2.594v-8.885a6.732,6.732,0,0,0-.137-1.755,1.373,1.373,0,0,0-.5-.7,2.656,2.656,0,0,0-1.151-.31v-.635h6.565"/>
        <path id="path24" d="M276.006-50.349v-5.38a10.024,10.024,0,0,0-3.093,2.615,3.175,3.175,0,0,0-.671,1.872,1.965,1.965,0,0,0,.567,1.393,1.554,1.554,0,0,0,1.2.463A3.3,3.3,0,0,0,276.006-50.349Zm0,1.255q-2.94,2.6-5.277,2.6a3.128,3.128,0,0,1-2.285-.9,3.074,3.074,0,0,1-.912-2.268,4.4,4.4,0,0,1,1.583-3.3q1.58-1.477,6.892-3.919v-1.615a7.425,7.425,0,0,0-.207-2.286,1.753,1.753,0,0,0-.739-.826,2.216,2.216,0,0,0-1.239-.359,3.181,3.181,0,0,0-1.839.5.881.881,0,0,0-.447.721,1.489,1.489,0,0,0,.481.893,2.211,2.211,0,0,1,.653,1.427,1.919,1.919,0,0,1-.636,1.445,2.286,2.286,0,0,1-1.632.583,2.644,2.644,0,0,1-1.823-.654,2,2,0,0,1-.721-1.529,3.533,3.533,0,0,1,.979-2.354,6.148,6.148,0,0,1,2.733-1.737,11.148,11.148,0,0,1,3.644-.6,5.942,5.942,0,0,1,3.609.979,4.513,4.513,0,0,1,1.736,2.1,13.737,13.737,0,0,1,.241,3.318v6.24a6.534,6.534,0,0,0,.085,1.393.806.806,0,0,0,.257.411.613.613,0,0,0,.395.138c.3,0,.6-.211.912-.635l.516.411a6.337,6.337,0,0,1-1.788,1.857,3.862,3.862,0,0,1-2.08.568,3.3,3.3,0,0,1-2.148-.635,2.958,2.958,0,0,1-.945-1.961h0" fill-rule="evenodd"/>
        <path id="path26" d="M289.971-70.028v19.971a3.894,3.894,0,0,0,.395,2.185,2.178,2.178,0,0,0,1.548.531v.62h-8.68v-.62a2.1,2.1,0,0,0,1.581-.617,3.865,3.865,0,0,0,.344-2.1V-66.693a3.735,3.735,0,0,0-.4-2.149,2.094,2.094,0,0,0-1.529-.55v-.636h6.737"/>
        <path id="path28" d="M299.734-62.792v12.734a3.867,3.867,0,0,0,.4,2.185,2.171,2.171,0,0,0,1.547.531v.62H293v-.62a2.1,2.1,0,0,0,1.581-.617,3.856,3.856,0,0,0,.343-2.1V-59.44a3.8,3.8,0,0,0-.393-2.167A2.107,2.107,0,0,0,293-62.156v-.635Zm-2.407-7.786a2.542,2.542,0,0,1,1.891.791,2.549,2.549,0,0,1,.773,1.873,2.52,2.52,0,0,1-.791,1.873,2.55,2.55,0,0,1-1.873.773,2.552,2.552,0,0,1-1.873-.773,2.549,2.549,0,0,1-.773-1.873,2.549,2.549,0,0,1,.773-1.873,2.525,2.525,0,0,1,1.873-.791h0" fill-rule="evenodd"/>
        <path id="path30" d="M311.053-50.349v-5.38a10.04,10.04,0,0,0-3.093,2.615,3.175,3.175,0,0,0-.671,1.872,1.967,1.967,0,0,0,.568,1.393,1.553,1.553,0,0,0,1.2.463A3.294,3.294,0,0,0,311.053-50.349Zm0,1.255q-2.94,2.6-5.276,2.6a3.134,3.134,0,0,1-2.287-.9,3.077,3.077,0,0,1-.909-2.268,4.4,4.4,0,0,1,1.58-3.3q1.58-1.477,6.892-3.919v-1.615a7.485,7.485,0,0,0-.205-2.286,1.749,1.749,0,0,0-.74-.826,2.211,2.211,0,0,0-1.237-.359,3.186,3.186,0,0,0-1.84.5.881.881,0,0,0-.447.721,1.492,1.492,0,0,0,.483.893,2.208,2.208,0,0,1,.652,1.427,1.922,1.922,0,0,1-.635,1.445,2.29,2.29,0,0,1-1.633.583,2.641,2.641,0,0,1-1.821-.654,2,2,0,0,1-.723-1.529,3.528,3.528,0,0,1,.98-2.354,6.133,6.133,0,0,1,2.733-1.737,11.14,11.14,0,0,1,3.643-.6,5.942,5.942,0,0,1,3.609.979,4.5,4.5,0,0,1,1.736,2.1,13.666,13.666,0,0,1,.241,3.318v6.24a6.628,6.628,0,0,0,.085,1.393.825.825,0,0,0,.259.411.613.613,0,0,0,.395.138c.3,0,.6-.211.911-.635l.516.411a6.322,6.322,0,0,1-1.788,1.857,3.858,3.858,0,0,1-2.08.568A3.3,3.3,0,0,1,312-47.133a2.958,2.958,0,0,1-.945-1.961h0" fill-rule="evenodd"/>
        <path id="path32" d="M324.942-62.792v2.081a9.234,9.234,0,0,1,2.372-1.943,5,5,0,0,1,2.44-.62,3.861,3.861,0,0,1,2.6.878,4.12,4.12,0,0,1,1.375,2.149A16.572,16.572,0,0,1,334-56.484v6.255a4.946,4.946,0,0,0,.327,2.32,2.014,2.014,0,0,0,1.411.568v.62h-8.131v-.62a1.694,1.694,0,0,0,1.307-.755,4.952,4.952,0,0,0,.275-2.133v-7.148a11.634,11.634,0,0,0-.155-2.492,1.474,1.474,0,0,0-.533-.792,1.26,1.26,0,0,0-.807-.292q-1.48,0-2.751,2.115v8.609a4.894,4.894,0,0,0,.327,2.287,1.728,1.728,0,0,0,1.255.6v.62h-8.129v-.62a2,2,0,0,0,1.444-.654,4.828,4.828,0,0,0,.292-2.234V-59.3a4.518,4.518,0,0,0-.344-2.271,2.006,2.006,0,0,0-1.392-.583v-.635h6.548"/>
        <path id="path34" d="M367.388-70.56v8.214h-.636a10.475,10.475,0,0,0-3.455-5.12,8.137,8.137,0,0,0-5.036-1.754,6.475,6.475,0,0,0-4.348,1.478,7.891,7.891,0,0,0-2.457,4.091,20.24,20.24,0,0,0-.723,5.4,19.725,19.725,0,0,0,.791,5.878,6.7,6.7,0,0,0,2.544,3.714,7.346,7.346,0,0,0,4.193,1.185,8.715,8.715,0,0,0,1.719-.172,12.878,12.878,0,0,0,1.823-.531v-4.846a5.063,5.063,0,0,0-.189-1.771,1.726,1.726,0,0,0-.791-.74,2.907,2.907,0,0,0-1.427-.325h-.6V-56.5h11.327v.635a4.906,4.906,0,0,0-1.805.359,1.727,1.727,0,0,0-.773.878,4.879,4.879,0,0,0-.155,1.6v4.846a22.47,22.47,0,0,1-4.657,1.495,23.814,23.814,0,0,1-5,.516,14.751,14.751,0,0,1-5.519-.893,14.209,14.209,0,0,1-3.867-2.372,11.329,11.329,0,0,1-2.612-3.318,11.561,11.561,0,0,1-1.2-5.31,11.966,11.966,0,0,1,3.7-8.886,12.735,12.735,0,0,1,9.3-3.627,16.186,16.186,0,0,1,3.128.275,15.554,15.554,0,0,1,2.44.79,10.39,10.39,0,0,0,2.011.636A1.373,1.373,0,0,0,366-69.22a3.223,3.223,0,0,0,.756-1.34h.636"/>
        <path id="path36" d="M378.612-62.052a2.019,2.019,0,0,0-1.512.669,4.691,4.691,0,0,0-.825,2.612q-.19,1.945-.189,5.414a22.986,22.986,0,0,0,.241,3.437,3.308,3.308,0,0,0,.808,1.857,1.912,1.912,0,0,0,1.409.635,1.946,1.946,0,0,0,1.289-.43,2.88,2.88,0,0,0,.893-1.633,39.63,39.63,0,0,0,.344-6.6,16.225,16.225,0,0,0-.327-4.005,3.09,3.09,0,0,0-.963-1.6,1.811,1.811,0,0,0-1.169-.359Zm-.068-1.221a7.454,7.454,0,0,1,3.9,1.083,6.878,6.878,0,0,1,2.733,3.076,10.1,10.1,0,0,1,.945,4.367,9.24,9.24,0,0,1-1.736,5.721,6.851,6.851,0,0,1-5.793,2.786,6.634,6.634,0,0,1-5.585-2.544,9.389,9.389,0,0,1-1.96-5.9,9.512,9.512,0,0,1,1.995-6.016,6.6,6.6,0,0,1,5.5-2.578h0" fill-rule="evenodd"/>
        <path id="path38" d="M393.706-46.239,388.292-58.7a12.3,12.3,0,0,0-1.531-2.854,2.053,2.053,0,0,0-1.169-.6v-.635h8.544v.635a1.574,1.574,0,0,0-1.1.292,1.175,1.175,0,0,0-.412.893,7.7,7.7,0,0,0,.756,2.391l2.648,6.031,2.112-5.206a10.049,10.049,0,0,0,.912-3.164,1.062,1.062,0,0,0-.4-.859,2.154,2.154,0,0,0-1.357-.378v-.635h5.26v.635a2.138,2.138,0,0,0-1.239.568,10.6,10.6,0,0,0-1.444,2.732l-5.361,12.617h-.808"/>
        <path id="path40" d="M410.972-56.484a15.513,15.513,0,0,0-.308-3.8,3.061,3.061,0,0,0-.928-1.563,1.435,1.435,0,0,0-.963-.31,1.689,1.689,0,0,0-1.461.878,7.511,7.511,0,0,0-1.013,4.193v.6Zm4.228,1.151h-8.816a8.306,8.306,0,0,0,1.7,5.055,3.594,3.594,0,0,0,2.853,1.425,3.284,3.284,0,0,0,1.873-.565,7.442,7.442,0,0,0,1.805-2.081l.583.378a9.811,9.811,0,0,1-2.887,3.781,6.265,6.265,0,0,1-3.661,1.1,6.093,6.093,0,0,1-5.413-2.75,9.7,9.7,0,0,1-1.479-5.5,9.113,9.113,0,0,1,2.165-6.393,6.717,6.717,0,0,1,5.105-2.391,5.483,5.483,0,0,1,4.228,2.01,9.069,9.069,0,0,1,1.941,5.93h0" fill-rule="evenodd"/>
        <path id="path42" d="M422.826-62.792v3.643a11.6,11.6,0,0,1,2.8-3.3,4.125,4.125,0,0,1,2.32-.826,2,2,0,0,1,1.529.6,2.258,2.258,0,0,1,.584,1.667,2.6,2.6,0,0,1-.567,1.789,1.706,1.706,0,0,1-1.34.635,2.324,2.324,0,0,1-1.581-.586,9.643,9.643,0,0,0-.791-.651.748.748,0,0,0-.4-.1,1.456,1.456,0,0,0-.945.378,3.581,3.581,0,0,0-1.065,1.667,11.7,11.7,0,0,0-.549,3.68v3.7l.017.964a3.915,3.915,0,0,0,.12,1.253,1.409,1.409,0,0,0,.6.687,3.743,3.743,0,0,0,1.375.258v.62h-8.68v-.62a1.882,1.882,0,0,0,1.411-.568,5.32,5.32,0,0,0,.377-2.594v-8.885a6.733,6.733,0,0,0-.137-1.755,1.387,1.387,0,0,0-.5-.7,2.67,2.67,0,0,0-1.153-.31v-.635h6.567"/>
        <path id="path44" d="M437.642-62.792v2.081a9.211,9.211,0,0,1,2.372-1.943,5,5,0,0,1,2.441-.62,3.865,3.865,0,0,1,2.595.878,4.111,4.111,0,0,1,1.375,2.149,16.65,16.65,0,0,1,.275,3.763v6.255a4.9,4.9,0,0,0,.328,2.32,2,2,0,0,0,1.408.568v.62H440.3v-.62a1.69,1.69,0,0,0,1.308-.755,4.952,4.952,0,0,0,.275-2.133v-7.148a11.728,11.728,0,0,0-.155-2.492,1.466,1.466,0,0,0-.533-.792,1.26,1.26,0,0,0-.807-.292q-1.478,0-2.751,2.115v8.609a4.894,4.894,0,0,0,.327,2.287,1.723,1.723,0,0,0,1.255.6v.62h-8.131v-.62a1.992,1.992,0,0,0,1.444-.654,4.8,4.8,0,0,0,.293-2.234V-59.3a4.534,4.534,0,0,0-.344-2.271,2.007,2.007,0,0,0-1.393-.583v-.635h6.549"/>
        <path id="path46" d="M456.266-62.792v2.115a9.152,9.152,0,0,1,2.44-2.013,5.348,5.348,0,0,1,2.476-.583,4.463,4.463,0,0,1,2.595.721,4.563,4.563,0,0,1,1.616,2.2,10.277,10.277,0,0,1,2.629-2.234,5.489,5.489,0,0,1,2.647-.687,4.156,4.156,0,0,1,2.647.773,3.867,3.867,0,0,1,1.376,1.943,12.848,12.848,0,0,1,.395,3.747v6.581a4.817,4.817,0,0,0,.327,2.3,2.076,2.076,0,0,0,1.409.583v.62h-8.3v-.62a1.842,1.842,0,0,0,1.444-.755,4.588,4.588,0,0,0,.309-2.133v-6.909a12.811,12.811,0,0,0-.172-2.732,1.558,1.558,0,0,0-.551-.859,1.32,1.32,0,0,0-.859-.292,2.534,2.534,0,0,0-1.5.549,6.777,6.777,0,0,0-1.529,1.615v8.628a4.93,4.93,0,0,0,.292,2.185,1.772,1.772,0,0,0,1.512.7v.62h-8.319v-.62a1.816,1.816,0,0,0,1.048-.325,1.42,1.42,0,0,0,.516-.721,7.617,7.617,0,0,0,.139-1.841v-6.909a12.519,12.519,0,0,0-.172-2.732,1.656,1.656,0,0,0-.585-.859,1.365,1.365,0,0,0-.859-.31,2.274,2.274,0,0,0-1.255.362,6.974,6.974,0,0,0-1.719,1.82v8.628a5.076,5.076,0,0,0,.325,2.253,1.778,1.778,0,0,0,1.411.635v.62h-8.285v-.62a1.992,1.992,0,0,0,1.444-.654,4.82,4.82,0,0,0,.293-2.234V-59.3a4.534,4.534,0,0,0-.344-2.271,2.01,2.01,0,0,0-1.393-.583v-.635h6.549"/>
        <path id="path48" d="M486.895-56.484a15.427,15.427,0,0,0-.309-3.8,3.052,3.052,0,0,0-.928-1.563,1.435,1.435,0,0,0-.963-.31,1.685,1.685,0,0,0-1.46.878,7.5,7.5,0,0,0-1.015,4.193v.6Zm4.229,1.151h-8.819a8.315,8.315,0,0,0,1.7,5.055,3.593,3.593,0,0,0,2.852,1.425,3.288,3.288,0,0,0,1.875-.565,7.42,7.42,0,0,0,1.8-2.081l.585.378a9.838,9.838,0,0,1-2.888,3.781,6.265,6.265,0,0,1-3.661,1.1,6.1,6.1,0,0,1-5.415-2.75,9.706,9.706,0,0,1-1.477-5.5,9.113,9.113,0,0,1,2.165-6.393,6.717,6.717,0,0,1,5.105-2.391,5.485,5.485,0,0,1,4.228,2.01,9.091,9.091,0,0,1,1.943,5.93h0" fill-rule="evenodd"/>
        <path id="path50" d="M498.292-62.792v2.081a9.234,9.234,0,0,1,2.372-1.943,5,5,0,0,1,2.44-.62,3.857,3.857,0,0,1,2.595.878,4.114,4.114,0,0,1,1.376,2.149,16.7,16.7,0,0,1,.276,3.763v6.255a4.952,4.952,0,0,0,.325,2.32,2.01,2.01,0,0,0,1.409.568v.62h-8.129v-.62a1.689,1.689,0,0,0,1.305-.755,4.944,4.944,0,0,0,.276-2.133v-7.148a11.729,11.729,0,0,0-.155-2.492,1.472,1.472,0,0,0-.532-.792,1.267,1.267,0,0,0-.809-.292q-1.478,0-2.749,2.115v8.609a4.894,4.894,0,0,0,.327,2.287,1.726,1.726,0,0,0,1.255.6v.62h-8.129v-.62a2,2,0,0,0,1.444-.654,4.835,4.835,0,0,0,.291-2.234V-59.3a4.539,4.539,0,0,0-.343-2.271,2.009,2.009,0,0,0-1.392-.583v-.635h6.548"/>
        <path id="path52" d="M515.919-68.67v5.878h3.817v1.7h-3.817v9.919a8.23,8.23,0,0,0,.121,1.8,1.4,1.4,0,0,0,.464.651,1.035,1.035,0,0,0,.6.242q1.118,0,2.115-1.7l.516.378q-1.394,3.3-4.521,3.3a4.046,4.046,0,0,1-2.595-.844,3.809,3.809,0,0,1-1.341-1.906,16.226,16.226,0,0,1-.172-3.164v-8.68h-2.1v-.6a21.838,21.838,0,0,0,3.679-3.214,19.5,19.5,0,0,0,2.664-3.763h.565"/>
        <path id="path54" d="M57.945-25.026a1.068,1.068,0,0,1-.444.443"/>
        <path id="path56" d="M61.969-56.495a.843.843,0,0,0,.842-.846.845.845,0,0,0-.842-.849.845.845,0,0,0-.841.849.843.843,0,0,0,.841.846h0"/>
        <path id="path58" d="M100.109-74.969H90.886v-16.26h9.223Zm0,7.722a5.2,5.2,0,0,1-1.968,4.041l-7.256,4.333V-74.138h9.223ZM90.061-74.969H81.542v-16.26h8.519Zm0,16.591-3.352,2h-.058a1.429,1.429,0,0,1-.883.31,1.407,1.407,0,0,1-.894-.323l-3.332-1.99V-74.138h8.519ZM78.094-74.969v-5.953h2.623v5.953Zm2.623,16.1-7.257-4.333a5.209,5.209,0,0,1-1.968-4.041v-6.892h9.225ZM74.678-91.228v6.272H71.493v-6.272Zm.795,2.356.372-.391-.231-.428.49.052.295-.519.287.511.5-.044-.232.428.373.391-.477.09v.531l-.45-.337-.449.337v-.531l-.477-.09Zm2.255,6.553c-.025-.158-.231-.2-.322-.2-.281,0-.4.469-.633.482-.177.009-.3.025-.3-.19,0-.157.361-.281.5-.419-1.966,0-2,.9-2.311.9-.515,0,.431-.947.7-1.223-.4-.064-.629-.556-1.065-.8.2-.295.321-.168.577.039,0-.206.155-.448.613-.448.879,0,.633.851.774.851s-.01-.851.58-.851c.87,0,1.961,2.242.974,2.242-.425,0-.083-.319-.091-.379Zm-2.114,4.785.49.053L76.4-78l.287.51.5-.045-.232.428.373.389-.477.091v.531l-.45-.337-.449.337v-.531l-.477-.091.372-.389-.231-.428Zm-3.6-6.052.489.051.3-.518.289.512.5-.045-.231.427.372.389-.475.092v.531l-.45-.336-.451.336v-.531l-.475-.092.372-.389-.231-.427Zm-.526,8.618v-5.953h3.185v5.953Zm7.319-7.8.374-.389-.234-.427.491.051.294-.518.29.512.5-.045-.231.427.374.389-.477.092v.531l-.453-.336-.448.336v-.531Zm1.906-2.185H78.094v-6.272h2.623Zm20.245-7.087v-.016H70.64v.016h0l.023,24.488c0,2.363,1,4.429,2.383,5.066L84.7-55.523a1.418,1.418,0,0,0,1.064.479,1.4,1.4,0,0,0,.948-.37L98.56-62.489c1.382-.637,2.383-2.7,2.383-5.066l.025-24.488h-.005"/>
        <path id="path60" d="M80.227-68.528c-.045-.1-1.156.369-.84.339a3.307,3.307,0,0,1,.925-1.245c-.051-.387-.548-.036-1.066.235,1.725-2.474.618-1.459-.347-1.283,1.541-1.661,1.137-1.633,0-1.116.893-.708,1.083-1.551.946-1.8-.837,1.117-1.609.943-1.609,1.978a4.127,4.127,0,0,1-.6,2.178c-.45.489-.1-1.827-1.287-1.827-.379,0-1.273-.03-1.542.433.242,0,.6.615.6.859s.224.918-.181.918-.874-.851-.874-1.259-.028-.312-.028-.9a3.286,3.286,0,0,0-2.244-2.357c0,.682.892.845.892,1.716-.378,0-.917-.707-.917-.271s.567.517.567.9-.648-.137-.648.271c0,.36.355.3.44.651-.263-.074-.5-.04-.546.094s.077.271.275.382c-.091.083-.17.287-.17.861,0,1.933,1.212,2.832,2.1,2.832.633,0,.535-.443.611-.655.027.329.339-.163.339.409,0,.6-.615.336-.615.853,0,.691.971-.025.971.741a9.142,9.142,0,0,1-.115,1.261c0,.244,1.017-.339.954-.444.243.089.234.808.686.79.293-.01.356-.737.588-.8-.137.036.92.69.92.359,0-.9-.37-.518-.37-1.138,0-.571,1.249-.46,1.051-.753-.166-.243-.279-.094-.411-.521.024.08-.981-1.433.209-.654,1.252.819,1.393-1.9,1.326-2.044h0"/>
        <path id="path62" d="M112.576-62.122a.943.943,0,0,0,1-.88.942.942,0,0,0-1-.878.944.944,0,0,0-1,.878.944.944,0,0,0,1,.88h0"/>
        <path id="path64" d="M108.543-59.726a.942.942,0,0,0,1-.878.944.944,0,0,0-1-.88.945.945,0,0,0-1,.88.943.943,0,0,0,1,.878h0"/>
        <path id="path66" d="M60.614-54.2a.943.943,0,0,0,1-.878.944.944,0,0,0-1-.88.945.945,0,0,0-1,.88.945.945,0,0,0,1,.878h0"/>
        <path id="path68" d="M63.721-53.932a.943.943,0,0,0,1-.88.943.943,0,0,0-1-.878.943.943,0,0,0-1,.878.944.944,0,0,0,1,.88h0"/>
        <path id="path70" d="M150.006-95.754a6.249,6.249,0,0,1,.741,6.606c-.581-.053-.477-.8-.581-1.226-1.059-1.971-1.905-4.474-.953-6.711.689.106.423.958.793,1.331h0"/>
        <path id="path72" d="M23.395-93.357a9.391,9.391,0,0,0,0,4.208c-.264.267-.211-.267-.476-.214-2.063-1.491-1.11-4.42-1.638-6.5a.408.408,0,0,1,.528-.107,3.8,3.8,0,0,1,1.586,2.61h0"/>
        <path id="path74" d="M154.556-93.2c.316.585-.265,1.171-.689,1.438a1.365,1.365,0,0,1-1.321-.586,1.221,1.221,0,0,1,.636-1.385,1.376,1.376,0,0,1,1.375.534h0"/>
        <path id="path76" d="M20.169-90.853a1.579,1.579,0,0,1-.687,1.171c-.318,0-.8,0-1.005-.265a.982.982,0,0,1-.213-1.12,1.229,1.229,0,0,1,1.006-.479c.37.159.741.267.9.693h0"/>
        <path id="path78" d="M156.617-89.947a1.187,1.187,0,0,1,0,.851,1.2,1.2,0,0,1-1.428.48,1.434,1.434,0,0,1-.581-.907,1.611,1.611,0,0,1,.9-.959,1.69,1.69,0,0,1,1.111.534h0"/>
        <path id="path80" d="M153.6-89.894c.424.211.105.745.053,1.064-.265.267-.633.692-1.111.531-.265-.264-.58-.264-.687-.638a1.179,1.179,0,0,1,.74-1.226,1.315,1.315,0,0,1,1,.268h0"/>
        <path id="path82" d="M149.742-89.1c0,.587.052,1.332-.635,1.44a1,1,0,0,1-1.216-.747,1.26,1.26,0,0,1,.793-1.279,1.433,1.433,0,0,1,1.057.586h0"/>
        <path id="path84" d="M25.932-88.83c.16.531-.369.852-.685,1.119a1.075,1.075,0,0,1-1.06-.588c-.37-.37.107-.692.213-1.01a.981.981,0,0,1,1.533.479h0"/>
        <path id="path86" d="M22.76-88.669a1.093,1.093,0,0,1-.58,1.013.962.962,0,0,1-1.06-.482.9.9,0,0,1,.476-1.225c.584-.213.952.319,1.164.694h0"/>
        <path id="path88" d="M136.944-88.457A11.145,11.145,0,0,1,138-84.621c-.212,1.012.16,2.343-.583,3.036-.74-.267-.792-1.172-1.269-1.65-.951-1.866-.1-4.051.212-5.861.424-.16.424.374.583.639h0"/>
        <path id="path90" d="M20.275-87.818c.157.64-.318.959-.688,1.331a1.24,1.24,0,0,1-1.323-.746,1.335,1.335,0,0,1,.689-1.276,1.356,1.356,0,0,1,1.323.691h0"/>
        <path id="path92" d="M145.3-86.273a7.685,7.685,0,0,1,.263,5.114l-.316.266c-.741-1.438-1.8-2.77-2.169-4.315a7.082,7.082,0,0,1,.636-3.037c.371-.264.581.053.74.373a2.1,2.1,0,0,0,.847,1.6h0"/>
        <path id="path94" d="M151.965-87.232a1.369,1.369,0,0,1-.8,1.279.949.949,0,0,1-1.216-.64,1.151,1.151,0,0,1,.581-1.279c.583-.32,1.165.215,1.431.639h0"/>
        <path id="path96" d="M22.813-85.58a1.139,1.139,0,0,1-.794,1.012c-.423.319-.739-.213-1.111-.372a1.26,1.26,0,0,1,0-1.225c.16-.32.53-.32.847-.427.477.267.952.48,1.057,1.012h0"/>
        <path id="path98" d="M25.14-85.846c.213.533-.37.8-.581,1.065-.635.213-.952-.266-1.216-.639-.106-.533.211-.854.581-1.173.635-.159.952.267,1.216.747h0"/>
        <path id="path100" d="M153.444-86.007c-.053.694-1.112,1.386-1.217,2.078a5.359,5.359,0,0,1-3.277,2.983,2.535,2.535,0,0,1-1.217.692c-.105-1.064.848-2.024,1.429-2.981a7.835,7.835,0,0,1,4.283-2.772h0"/>
        <path id="path102" d="M21.756-83.769a19.247,19.247,0,0,0,2.168,2.5.438.438,0,0,1-.37.533c-2.591-.16-4.335-2.823-5.606-4.686.159-.588.846-.107,1.217-.161.9.692,1.9.905,2.591,1.811h0"/>
        <path id="path104" d="M154.185-83.024a6.84,6.84,0,0,1-3.28,5.753c-.581.213-1.217.8-1.8.427a26.649,26.649,0,0,1,4.655-6.18h.423"/>
        <path id="path106" d="M144.03-81.479a1.3,1.3,0,0,1-.9,1.545c-.583.053-.952-.426-1.217-.852a1.113,1.113,0,0,1,.741-1.172.874.874,0,0,1,.633-.16c.319.108.476.373.741.64h0"/>
        <path id="path108" d="M18.846-81A31,31,0,0,1,21.7-78.5c-.687.481-1.533.053-2.328.053-1.8-.638-3.014-2.183-4.865-2.716.052-.586.74-.372,1.111-.532A9.7,9.7,0,0,1,18.846-81h0"/>
        <path id="path110" d="M75.488-96.765c-2.961-1.173-4.918,1.917-7.933,1.544-.369.214-.263.586-.475.853-.159.159-.424.053-.582-.054-.157-1.279-.581-2.451-.74-3.677-.318-.532-.159-1.278-.422-1.81-1.693-4.634,4.124-1.119,5.287-3.834,1.007-2.344-1.956-2.61-2.855-4.261v-.694c-.847-.852-1.745-1.118-2.275-2.237a7.705,7.705,0,0,0,.159-4.1c-.053-.32-.264-.746-.739-.586-1.006,1.384-1.746,2.5-2.7,3.836a28.38,28.38,0,0,0-3.12-2.345c-.794-.106-1.533-.9-2.432-.585a.727.727,0,0,0,.159.8,7.643,7.643,0,0,0,2.59,5.221l.16.8c-.951,2.183-.687,4.685-.951,7.031A39.026,39.026,0,0,1,47.141-84.728c-3.014,3.41-6.61,6.713-7.088,11.4-.157.747.108,1.653-.475,2.184a18.163,18.163,0,0,1-4.919-2.609c-2.432-1.705-5.923-1.493-7.51-4.582-.635-1.225.16-2.45.74-3.355,1.8-1.7,1.534-4.741.582-6.817-.211-.054-.265.21-.422.264-.16,3.144-2.646,5.327-1.693,8.791.212,1.01.741,1.651,1.006,2.609a8.321,8.321,0,0,1-1.217-.266A13.223,13.223,0,0,0,22.6-77.59c-2.432,1.119-5.764-.265-7.721,1.972-.318.053-.74.107-.633.585,1.162,0,2.272.32,3.437.268,1.849.318,3.066-1.226,4.335-1.919h.317c.53-.533,1.43-.213,2.117-.32,3.331.374,5.922,1.971,8.672,3.623v.212c-1.057.48-2.273.8-3.332,1.385-1.217.906-2.592,2.077-2.962,3.57-.846,1.331.265,2.5.794,3.621.052.533.106,1.172.582,1.385,1.692-1.81.1-4.047.369-6.125.424-1.6,1.906-2.343,3.439-2.769,3.015-1.279,5.184,1.171,7.614,2.557-.052,2.451.266,4.794-.263,7.19a6.612,6.612,0,0,1-2.487.375c-4.178.318-7.456,2.609-11.211,3.888-1.692.586-3.7.531-5.394,1.172,1.321.372,2.7-.107,4.072-.161,5.183-.745,9.149-4.74,14.755-4.047l.105.159a12.531,12.531,0,0,1-2.485,3.463c-.16-.586-.211-1.065-.741-1.385a.982.982,0,0,0-1.216.427.727.727,0,0,0,0,.8,1.742,1.742,0,0,0,1.164.747c-.106.479-.689.693-1.005,1.117-1.481,2.505-4.5,1.492-6.241,3.25-.265.372-1.216.586-.794,1.172a7.939,7.939,0,0,0,5.447-1.385c1.958-2.182,4.02-4.26,5.976-6.339a6.346,6.346,0,0,1-1.162,4.846,6.321,6.321,0,0,0-1.429-.8,1.307,1.307,0,0,0-.951,1.068,3.11,3.11,0,0,0,.791,1.065c-1.8,1.279-4.07,1.385-6.133,1.971A104.337,104.337,0,0,1,18.9-50.1c-1.852-.107-3.967.531-5.711,0-2.011.372-4.178-.266-5.818.851-.211.266.051.534.051.8,2.435,1.6,5.767.318,8.517.8H36.775a9.316,9.316,0,0,0,4.283-.8c2.7-1.544,4.179-4.315,5.555-7.031a10.937,10.937,0,0,0,1.11-3.2,4.6,4.6,0,0,1,3.965-3.25,24.239,24.239,0,0,1-.9,8.1c-.318,1.706-1.428,3.357-.74,5.167.159.854,1.059.854,1.745.961,6.4-.107,12.8-.375,19.569.107a16.031,16.031,0,0,0,3.6.531c.106-.161.477-.213.318-.531a2.014,2.014,0,0,0-1.27-1.495c-.1-.318-.58-.211-.74-.425-3.384-1.917-7.456-.906-11.424-.851-2.063.211-4.125.583-5.871-.586-.792-.961-.211-3.995-.211-3.995,0-1.206,2.909-9.589,3.28-10.282a9.207,9.207,0,0,0,.317-2.451,10.324,10.324,0,0,0,.317-3.621,24.709,24.709,0,0,1,1.639-4.954c.318-.8.583-1.651.9-2.45a7.948,7.948,0,0,1,1.059-2.77c1.725,1.094,3.413,1.063,4.241,3.02l.73,4.437c0,.267.211.8.582.481,1.375-.907.952-2.931.952-4.315.317-1.652-.845-2.451-1.323-3.89a6.386,6.386,0,0,1-.978-1.536c-.212-1.173-2.776-1.979-2.194-3.417a4.335,4.335,0,0,1,1.8-3.037.552.552,0,0,1,.263.378l.635-.444.066-4.455c1.713-.006,4.27.214,6.015.214.477.16.847.532,1.376.586l.422-.586,4.286-.835c-1.82.2-2.927-1.887-4.657-1.887h0"/>
        <path id="path112" d="M80.145-94.878a2.435,2.435,0,0,0,.395-.077l-.395.077h0"/>
        <path id="path114" d="M34.078-80.039a1.177,1.177,0,0,1-.795,1.224c-.423-.159-.739-.213-1-.638-.212-.586.316-1.013.739-1.227.424.107.953.16,1.059.641h0"/>
        <path id="path116" d="M30.641-80.039a1.164,1.164,0,0,1,.211,1.224c-.37.319-.953.586-1.27.161-.318-.32-.633-.693-.369-1.12.369-.372,1.005-.692,1.428-.265h0"/>
        <path id="path118" d="M104.26-79.453c.015.024.03.051.045.076"/>
        <path id="path120" d="M144.558-78.549c.212.588-.264,1.013-.687,1.226-.529-.16-1.216-.267-1.216-.959a1.019,1.019,0,0,1,.792-.8,1.029,1.029,0,0,1,1.111.532h0"/>
        <path id="path122" d="M147.362-78.654c.159.265.529.693.105.959a2.046,2.046,0,0,0-.529.425,1.027,1.027,0,0,1-1.269-.639c-.107-.587.371-.853.795-1.119.368-.107.633.161.9.374h0"/>
        <path id="path124" d="M17.364-78.015a1.042,1.042,0,0,1-1.427.692,2.237,2.237,0,0,1-.424-.692.985.985,0,0,1,.583-.906,1.27,1.27,0,0,1,1.268.906h0"/>
        <path id="path126" d="M35.19-77.11c-.055.425-.53.8-.9,1.011a1.366,1.366,0,0,1-1.166-.745,1.07,1.07,0,0,1,.634-1.065,1.182,1.182,0,0,1,1.43.8h0"/>
        <path id="path128" d="M32.068-77.484a.82.82,0,0,1,.159.853c-.318.266-.793.745-1.321.426-.32-.267-.688-.48-.583-1.013a2.335,2.335,0,0,1,.795-.638c.421-.106.633.16.951.372h0"/>
        <path id="path130" d="M155.454-76.844a1.415,1.415,0,0,1-.689,1.011A1.036,1.036,0,0,1,153.6-76.1c-.317-.106-.212-.532-.212-.8a1.836,1.836,0,0,1,1.005-.693,1.944,1.944,0,0,1,1.059.746h0"/>
        <path id="path132" d="M158.838-76.365a1.32,1.32,0,0,1-1.005.959c-.316-.054-.9-.16-.791-.64a.944.944,0,0,1,.475-.852.934.934,0,0,1,1.321.533h0"/>
        <path id="path134" d="M23.395-75.619a1.035,1.035,0,0,1-.635,1.278c-.37.213-.741-.053-1-.266a.916.916,0,0,1-.265-1.065c.1-.479.581-.373.9-.586a1.306,1.306,0,0,1,1.005.64h0"/>
        <path id="path136" d="M25.986-75.14c.159.426-.317.586-.423.906a.886.886,0,0,1-.953.106c-.369-.32-.793-.8-.423-1.278.423-.8,1.534-.373,1.8.266h0"/>
        <path id="path138" d="M152.332-75.406c.055.532-.421.905-.739,1.225a.91.91,0,0,1-1.059-.639,1.1,1.1,0,0,1,.583-1.013,1.153,1.153,0,0,1,1.215.427h0"/>
        <path id="path140" d="M156.67-74.554c-.108.479-.053,1.013-.583,1.331a1.5,1.5,0,0,1-1.268-.212.974.974,0,0,1-.212-1.119,1.243,1.243,0,0,1,1.269-.639c.372.213.476.479.793.639h0"/>
        <path id="path142" d="M21.386-73.435c.21.425-.266.532-.423.745A1.069,1.069,0,0,1,19.9-72.8c-.371-.214-.211-.744-.158-1.011.474-.906,1.428-.267,1.64.373h0"/>
        <path id="path144" d="M153.338-72.423c.211.053.105.373.052.48-1.268.64-3.172.8-4.283-.213a16.6,16.6,0,0,0-2.116-1.173c.264-.692,1.216-.639,1.9-.8,1.532.213,2.749,1.652,4.443,1.7h0"/>
        <path id="path146" d="M23.923-72.9c.107.427-.211.587-.317.905-.211.32-.634.213-.9.107a.953.953,0,0,1-.371-1.333.954.954,0,0,1,1.587.32h0"/>
        <path id="path148" d="M28.576-72.583c.212.48-.1.906-.527,1.171-.372.214-.687-.105-1.006-.159-.263-.373-.741-.8-.263-1.226.475-.8,1.427-.373,1.8.214h0"/>
        <path id="path150" d="M89.723-70.33c-.1,1.063-1.859-.151-1.609,1.266A8.111,8.111,0,0,0,89.17-66.08c.5.709.25,1.822.2,2.682a4.769,4.769,0,0,1-2.01,1.721c-1.507-.151-3.719.758-4.422-1.112a7.556,7.556,0,0,1-.855-2.531c.152-.1.353-.1.5-.253,0-.355-.4-.558-.352-.911,1.708-.3-.7-1.822.754-1.923,1.2,1.265,3.165.86,4.22,2.226a4.648,4.648,0,0,0,.754.658c-.2-1.266-.8-2.529-1.005-3.9a1.763,1.763,0,0,1,.6-1.771c.905-.708,1.658.3,2.16.86h0"/>
        <path id="path152" d="M33.232-70.664c.158.532-.264.852-.583,1.118-.475.213-.74-.319-.952-.586-.159-.532.212-.8.53-1.066a1.144,1.144,0,0,1,1.005.534h0"/>
        <path id="path154" d="M65.863-70.133a7.307,7.307,0,0,1-.637,5.966c-.052.425.108,1.119-.475,1.066-1.427-1.971-.37-4.741.212-6.818.105-.533.74-.745.9-.213h0"/>
        <path id="path156" d="M111.135-69.121a6.01,6.01,0,0,1,.106,4.954l-.424.425a12.162,12.162,0,0,1-1.216-3.781,12.881,12.881,0,0,0,.635-2.823c.741-.159.687.8.9,1.225h0"/>
        <path id="path158" d="M37.357-68.535c-.318.639-1.217.8-1.8,1.225a6.3,6.3,0,0,1-4.706.907,5.751,5.751,0,0,1,6.028-2.5c.107.213.372.107.478.373h0"/>
        <path id="path160" d="M15.621-66.617c1.956,1.384,2.485,3.3,3.649,5.218.158.213.688.268.477.693-.424.32-.847-.318-1.429-.214A5.849,5.849,0,0,1,15.091-66.4c0-.213.317-.213.53-.213h0"/>
        <path id="path162" d="M109.072-64.966c.053.533-.054,1.065-.477,1.224a.966.966,0,0,1-1.216-.639c-.159-.372.157-.585.265-.852a.937.937,0,0,1,1.428.266h0"/>
        <path id="path164" d="M131.39-62.143a26.445,26.445,0,0,1,.369-2.929,1.93,1.93,0,0,0,.212-1.118c1.27-1.706,3.861-1.172,5.871-1.013a11.2,11.2,0,0,0,2.644.586,1.932,1.932,0,0,1,1.323-.267c1.691-.907.581-2.876.688-4.421l-.636-1.6a6.214,6.214,0,0,1-.423-1.066c-.316-.373-.528-1.066-.845-1.437-.9-2.344-2.645-3.675-4.125-5.54-2.7-3.517-6.929-5.487-11.16-6.872-4.178-1.438-8.41.427-12.165,1.757a3.033,3.033,0,0,1-2.061-2.238,10.582,10.582,0,0,1,1.005-5.645c.159-1.332,1.056-2.344,1.427-3.569a37.994,37.994,0,0,0,2.17-9.161c.1-1.971-1.375-3.357-2.857-4.208a2.881,2.881,0,0,0-2.908.586,7.721,7.721,0,0,1-3.438,3.089c-.107.906,1,.32,1.373.64,1.164.214,2.487-.16,3.439.586.106,2.131-1.111,3.889-2.221,5.487a42.281,42.281,0,0,0-4.813,8.309l-.212-.213.257,13.021c1.687,2.805,3.791,6,6.937,7.062,1.691,1.383,3.807,3.035,6.081,1.81,1.216-.373,1.322,1.331,1.9,2.023.634,1.971-.792,3.356-.9,5.167l-1.375,2.93c-1.587,3.091-3.013,6.393-5.446,9-.794,0-1.269.852-2.061.906-.425.586-1.271.159-1.8.372-1.64.693-3.968.266-5.078,1.81a.735.735,0,0,0,.422.268c3.225.052,6.822.266,10.26.107a1.277,1.277,0,0,0,.846-1.013c-.475-.906.159-1.706.581-2.4.265-1.279,1.111-2.076,1.482-3.3,1.11-2.182,2.379-4.313,3.6-6.5l1.64-2.663a18.71,18.71,0,0,1,1.639-2.983,6.839,6.839,0,0,0,.953-1.437c.054-.534-.211-.747-.53-1.12.371-.373.953-.267,1.43-.373a5.987,5.987,0,0,1,2.961,3.517l.477,1.383.213.64-.107,1.758.212,1.651a37.969,37.969,0,0,1-.476,7.724c-.9,3.089-4.443,2.771-6.982,3.461-.634.427-1.849.214-1.849,1.279,3.065.641,6.663.268,9.942.214.528-.214.634-.693.9-1.172.107-.693.794-1.279.581-2.023-.581-.745-.052-1.917-.21-2.93a1.639,1.639,0,0,0,0-1.013c.423-1.544.317-3.409.634-4.9l.212-2.023h0"/>
        <path id="path166" d="M157.41-64.219c-1.692,2.4-3.491,5.113-6.451,5.964-.212,0-.425.107-.532-.159,1.8-1.919,2.753-4.9,5.555-5.593a1.728,1.728,0,0,1,1.428-.212h0"/>
        <path id="path168" d="M13.029-61.609c-.265.211-.052.69-.529.745a.852.852,0,0,1-1.109-.479.946.946,0,0,1,.686-1.172c.422.213.846.372.952.906h0"/>
        <path id="path170" d="M28.261-60.864c.158.479-.371.479-.635.586a5.76,5.76,0,0,1-6.082-1.544c0-.213,0-.427.212-.479,2.168.531,4.708.107,6.505,1.438h0"/>
        <path id="path172" d="M15.938-61.557a1.4,1.4,0,0,1,.106.8,1.175,1.175,0,0,1-1.322.479,1.721,1.721,0,0,1-.689-.693,1.263,1.263,0,0,1,.9-1.01,1.581,1.581,0,0,1,1.006.424h0"/>
        <path id="path174" d="M65.492-61.289c.106.477-.317.8-.634,1.01a1.045,1.045,0,0,1-1.11-.427.767.767,0,0,1,.37-1.01c.475-.107,1.216-.055,1.373.427h0"/>
        <path id="path176" d="M159.42-61.075c.16.531-.315.8-.687,1.117a1.154,1.154,0,0,1-1.007-.161c-.052-.266-.368-.479-.261-.852a1.126,1.126,0,0,1,1.215-.638,5.973,5.973,0,0,1,.74.534h0"/>
        <path id="path178" d="M162.912-61.289c.316.477.053.852-.212,1.224a.726.726,0,0,1-.952.32c-.319-.32-.743-.482-.793-.961,0-.425.475-.745.793-.9.529-.214.74.32,1.164.32h0"/>
        <path id="path180" d="M10.807-59.745c.054.372-.264.586-.369.9-.265.107-.53.32-.847.214a1.55,1.55,0,0,1-.793-.852,1.383,1.383,0,0,1,.952-1.065,1.362,1.362,0,0,1,1.058.8h0"/>
        <path id="path182" d="M122.187-59.745a1.531,1.531,0,0,1,.054.693c-.317.425-.741.8-1.27.531-.316-.32-.687-.638-.529-1.12a1.037,1.037,0,0,1,1.745-.1h0"/>
        <path id="path184" d="M19.322-58.945c-.1.372-.264.745-.741.8s-.634-.372-.9-.586c0-.479-.054-.958.422-1.224a.962.962,0,0,1,1.216,1.013h0"/>
        <path id="path186" d="M14.246-58.841a1.117,1.117,0,0,1-.53,1.172,1.245,1.245,0,0,1-1.427-.745,1.513,1.513,0,0,1,.95-1.227c.477,0,.742.534,1.007.8h0"/>
        <path id="path188" d="M125.678-58.945a1.057,1.057,0,0,1-.582,1.276c-.634.214-1.163-.32-1.428-.745.265-.427.317-1.013.952-1.117a1.212,1.212,0,0,1,1.058.586h0"/>
        <path id="path190" d="M16.731-58.734c.158.372-.158.534-.267.8-.262,0-.421.32-.739.214-.212-.268-.635-.372-.687-.745-.053-.534.318-.8.687-1.013a.977.977,0,0,1,1.005.745h0"/>
        <path id="path192" d="M156.51-58.307a1.58,1.58,0,0,1-.9.852c-.423.107-.688-.266-1-.427-.265-.211-.16-.69-.052-.958a1.061,1.061,0,0,1,1.955.534h0"/>
        <path id="path194" d="M160.53-58.094a1.367,1.367,0,0,1-1.268.9c-.477-.211-1.005-.583-.636-1.224.212-.214.317-.427.636-.479a1.011,1.011,0,0,1,1.268.8h0"/>
        <path id="path196" d="M135.408-57.721c.267.693-.367.906-.791,1.224a2.4,2.4,0,0,1-1.007-.425,1.227,1.227,0,0,1,.743-1.385,1.278,1.278,0,0,1,1.055.586h0"/>
        <path id="path198" d="M120.867-57.083c.263.107.158.479.1.641-.316.213-.739.745-1.216.424a.9.9,0,0,1-.529-1.01.987.987,0,0,1,1.641-.055h0"/>
        <path id="path200" d="M123.826-56.708a.724.724,0,0,1-.422.852c-.371.372-.794-.055-1.163-.161a.851.851,0,0,1-.054-.8,1.169,1.169,0,0,1,.688-.427c.372.107.794.107.952.534h0"/>
        <path id="path202" d="M34.078-56.656c.317.318-.053.693-.106,1.013a1.036,1.036,0,0,1-1.322.266c-.529-.214-.475-.906-.369-1.331.316-.107.316-.482.739-.482a1.851,1.851,0,0,1,1.059.534h0"/>
        <path id="path204" d="M141.068-56.443c.107.531-.424.745-.792.851-.636.214-.952-.266-1.216-.693,0-.32.316-.531.423-.8.74-.318,1.216.214,1.585.641h0"/>
        <path id="path206" d="M138.213-56.443c.209.531-.371.8-.583,1.065a1.058,1.058,0,0,1-1.163-.214c-.267-.159-.267-.479-.267-.8.319-.266.477-.586.849-.693a1.379,1.379,0,0,1,1.163.641h0"/>
        <path id="path208" d="M162.065-55.8c.1.745-.845.372-1.216.586-2.223,1.331-5.079.32-7.193-.479.159-.693.952-.425,1.376-.693,2.273-1.437,4.6.32,6.873.427l.16.159h0"/>
        <path id="path210" d="M17.312-56.443l-.211.372C15.145-54.9,12.6-54.1,10.28-54.844l-.213-.32a9.564,9.564,0,0,1,7.087-1.44l.157.161h0"/>
        <path id="path212" d="M146.464-56.07a1.206,1.206,0,0,1-.531,1.01,1.051,1.051,0,0,1-1.375-.583c-.157-.427.265-.854.688-1.013.371,0,1.005.052,1.217.586h0"/>
        <path id="path214" d="M26.78-55.857c-.212.425-.106.852-.635,1.065a1.144,1.144,0,0,1-1.321-.693c-.159-.586.263-.745.529-1.013.634-.318,1.111.159,1.428.641h0"/>
        <path id="path216" d="M23.026-55.591c.158.372-.16.586-.266.852a.968.968,0,0,1-1.058.161c-.369-.32-.74-.693-.582-1.279a3.014,3.014,0,0,1,.848-.586,1.2,1.2,0,0,1,1.058.851h0"/>
        <path id="path218" d="M150.166-54.367a1.143,1.143,0,0,1-.847.961,1.207,1.207,0,0,1-1.005-.534.83.83,0,0,1,.212-1.01c.1-.161.475-.161.687-.268a1.141,1.141,0,0,1,.953.852h0"/>
        <path id="path220" d="M19.11-54.95c.159.425-.211.583-.265.9a7.821,7.821,0,0,1-1.162,2.292c-1.007,1.224-2.434,1.224-3.861,1.6l-.212-.425a13.925,13.925,0,0,1,5.342-4.477l.158.109h0"/>
        <path id="path222" d="M147.521-53.779c.105.638-.424.745-.793,1.01a1.205,1.205,0,0,1-1.059-.638c-.159-.586.371-.8.688-1.065a1.064,1.064,0,0,1,1.164.693h0"/>
        <path id="path224" d="M25.192-53.779c-.053.1.055.211.16.266-.053.586-.477.745-.794,1.01a1.423,1.423,0,0,1-1.164-.531.89.89,0,0,1,.529-1.227c.476-.052,1.111,0,1.269.482h0"/>
        <path id="path226" d="M157.253-52.182c.527-.052.633-.693,1.216-.8a1.292,1.292,0,0,1,1.269.586c.211.638-.267.958-.688,1.224-.371.266-1.164-.32-1.112.372a1.657,1.657,0,0,1,.741,1.065c-.105.213-.476.159-.635.055a6.7,6.7,0,0,1-3.808-3.3c-.211-.482-1.215-.854-.635-1.281,1.535-.107,2.8,1.12,3.651,2.078h0"/>
        <path id="path228" d="M162.329-53.833a.812.812,0,0,1-.052,1.013c-.267.531-1.057.318-1.533.266-.265-.266-.529-.531-.424-.958a1.678,1.678,0,0,1,.793-.693,1.466,1.466,0,0,1,1.216.372h0"/>
        <path id="path230" d="M143.132-50.956a7.622,7.622,0,0,1,1.163,2.13c-.107.159-.371.107-.475.107-1.8-1.013-4.125-2.13-4.815-4.26-.159-.213-.583-.482-.528-.854,1.375-.266,2.7.747,3.649,1.492.371.534.793.8,1.005,1.385h0"/>
        <path id="path232" d="M22.232-52.979c.211.477-.213.852-.477,1.063a1.213,1.213,0,0,1-1.217-.425c-.37-.586.318-1.065.742-1.279.421-.055.687.372.952.641h0"/>
        <path id="path234" d="M149.742-51.755c.052.32-.369.531-.529.745-.423.055-.847.213-1.216-.159-.105-.266-.371-.693-.053-.958.583-.747,1.429-.161,1.8.372h0"/>
        <path id="path236" d="M162.912-51.01a1.256,1.256,0,0,1-.743,1.333,1.383,1.383,0,0,1-1.268-.482c-.264-.318-.052-.638,0-1.011a1.32,1.32,0,0,1,1.376-.372,2.826,2.826,0,0,1,.635.531h0"/>
        <path id="path238" d="M126.313-43.659c0,.638-1.164.479-1.64.958a11.336,11.336,0,0,1-5.553.8v-.32a7.862,7.862,0,0,1,7.192-1.437h0"/>
        <path id="path240" d="M49.153-41.37a1.017,1.017,0,0,1-.8.906,1.025,1.025,0,0,1-.9-.531c-.212-.641.318-.906.687-1.172a1.237,1.237,0,0,1,1.007.8h0"/>
        <path id="path242" d="M125.414-40.784a1.515,1.515,0,0,1-.794,1.227c-.476.107-.794-.159-1.165-.372-.264-.213-.1-.586-.156-.854a1.139,1.139,0,0,1,2.115,0h0"/>
        <path id="path244" d="M135.94-40.57c-1.323.854-2.8,1.867-4.549,1.867l-2.855-.055-.268-.213c1.746-2.13,4.92-2.13,7.672-1.917v.318"/>
        <path id="path246" d="M34.659-39.292a.978.978,0,0,1-.687,1.013.967.967,0,0,1-1.111-.479.965.965,0,0,1,.423-1.227c.582-.372,1.165.268,1.376.693h0"/>
        <path id="path248" d="M37.3-38.758c.159.266-.1.427-.211.693a.87.87,0,0,1-1,0,.672.672,0,0,1-.318-.906c.159-.32.477-.266.635-.479a1.489,1.489,0,0,1,.9.693h0"/>
        <path id="path250" d="M17.048-33.378c-.53.638-1.374-.161-1.957-.482-1.852-1.063-1.8-3.141-3.649-4.367.211-.638.686.055,1.057-.052a7.132,7.132,0,0,0,1.111.586c1.8,1.013,2.221,2.716,3.437,4.315h0"/>
        <path id="path252" d="M87.124-34.391a4.794,4.794,0,0,0-.582,1.865l-.211.107c.159-.8-.635-1.279-.424-2.13-.424-.641-.424-1.44-.792-2.13-.476-.854.421-1.227.792-1.812.742.32,1.005,1.013,1.534,1.651C87.758-35.935,87.071-35.242,87.124-34.391Zm84.09-19.656a4.211,4.211,0,0,0-3.967-2.182,3.647,3.647,0,0,0-2.963,2.182,2.694,2.694,0,0,0,1.005,2.93.815.815,0,0,0,1.057-.266c.265-.693-.475-.693-.581-1.227a1.764,1.764,0,0,1,.581-1.862c.529-.534,1.429-.268,2.063-.268A3.707,3.707,0,0,1,170-53.193a4.287,4.287,0,0,1,0,2.823,4.736,4.736,0,0,1-3.277,2.664c-4.391.638-52.571.425-52.571.425-5.657.534-12.11-1.065-16.975,1.917-2.222,1.065-3.332,3.516-3.914,5.7a38.532,38.532,0,0,0-4.127,4.208l-.159-.159c.263-1.279.846-2.4,1.111-3.677.792-1.065.792-2.5,1.375-3.674,2.01-3.25,3.913-6.552,7.034-8.841,1.322-1.76,3.648-1.44,5.659-1.44a14.028,14.028,0,0,0,7.351,1.065.486.486,0,0,0,.159-.372c-.74-.693-1.958-.958-2.8-1.651-2.114-1.013-4.126.318-6.347.159-.105-.107-.211-.159-.159-.32a31.36,31.36,0,0,1,6.559-3.516,44.888,44.888,0,0,1,5.763-2.289c.794,0,1.535-.693,2.274-.214l2.8-.745c.106.055.213.211.424.159,2.379-.8,5.395-.052,8.09-.1l.372.318,2.538.638c.952.107,1.376,1.227,2.38,1.279.528-.745-.582-1.065-.846-1.544a5.805,5.805,0,0,1,3.542.534l-.527.586c-.32.586.159,1.01.633,1.224.371.107.636-.159.9-.266.688-.479-.053-.958.159-1.385a50.628,50.628,0,0,1,11.267,3.2c1,.32,1.955,1.065,3.067,1.013a13.865,13.865,0,0,0-4.02-2.13c-.9-.534-2.169-.586-2.855-1.331.157-.268.528-.161.685-.375,1.8-.211,3.333-1.544,4.6-2.982.1-.318.685-.213.635-.641-.477-.533-1.272.161-1.905.109-2.221.425-3.173,3.034-5.4,3.513-2.695-.638-5.447-1.279-8.144-1.969a16.414,16.414,0,0,1-3.965-.854l-2.962-.266h-5.4c-.052-.107-.211-.159-.159-.32,1.906-.479,3.544-1.6,5.449-2.078L142.5-71.3a34.809,34.809,0,0,0,4.02-4.368,1.006,1.006,0,0,0-.584-1.013.881.881,0,0,0-1.056.213c-.635.48,0,1.066,0,1.652a8.939,8.939,0,0,1-2.433,2.077c-.211-.054-14.6,6.553-14.6,6.553a36.346,36.346,0,0,1-6.452,2.4l-3.068.479A2.011,2.011,0,0,1,117-62.091a12.538,12.538,0,0,1-2.431.693c-6.877,2.664-14.015,5.487-19.463,10.922a6.042,6.042,0,0,0,.529-2.24,4.43,4.43,0,0,0-.581-2.344c-.123-.292-.513-1.151-.388-1.458l-.777.5a7.416,7.416,0,0,0-.422,4.529c.159.958.951,2.078.211,2.93-2.539,3.089-3.968,6.82-5.659,10.333-.635-.1-.953-.693-1.217-1.279a17.748,17.748,0,0,0,3.756-7.776c.37-.266.105-.958.475-1.279-.1-.852.476-1.7.054-2.4.337-1.164-1.546-2.237-.343-2.982l-1,.477C87.476-50.476,90.932-46,88.34-43.128v.214c-.741.961-1.111,1.919-2.116,2.557-1.269-.531-1.745-1.971-2.487-3.036-1.163-1.12-1.163-3.409-.474-4.953.474-1.544-.318-2.878-.478-4.263l-.528-.318a6.152,6.152,0,0,0-.741,6.232c.529.958.582,2.292,1.376,3.091a17.259,17.259,0,0,0,2.274,3.94c.213.534-.318.638-.581.906-.581-.372-.478-1.227-1.005-1.6A38.718,38.718,0,0,0,76.812-50.1c-.108-.479-.583-.906-.32-1.438a3.9,3.9,0,0,0,.688-4.049c-.1-.266-.421-.586-.368-.851l-.795-.641c.107,1.865-1.11,3.516-.581,5.487v.107A100.766,100.766,0,0,0,57.83-62.13l-.488,1.354a36.581,36.581,0,0,1,5.665,2.893A36.406,36.406,0,0,1,68.3-55.06c7.192,4,11.952,10.6,15.178,17.953.054.586.584,1.224.213,1.81-1.111-1.7-2.7-2.661-4.019-4.047a7.764,7.764,0,0,0-4.02-5.914c-.794-1.169-2.485-1.276-3.807-1.651l-19.252-.107c-15.655-.214-29.934.482-45.482.213-2.169-.213-4.814-.958-5.448-3.25a3.538,3.538,0,0,1,0-2.927,3.234,3.234,0,0,1,2.7-1.44,2.837,2.837,0,0,1,1.8,1.492c0,.693-.584,1.331-.849,1.917.054.213.265.641.636.479a2.482,2.482,0,0,0,1.376-1.7c.052-.375.21-.906-.16-1.172a3.539,3.539,0,0,0-2.485-2.185,4.418,4.418,0,0,0-3.6,1.224C-.193-53.3-.141-51.383.23-49.891a7.138,7.138,0,0,0,5.712,4.26l51.46.214c5.023.266,10.682-.586,15.759.427,1.852.586,3.809,1.969,4.284,4.047-.055.107-.213.055-.37.055a22.924,22.924,0,0,0-15.021-3.091c-2.115-.107-4.019.693-5.922,1.227a3.006,3.006,0,0,1-2.593-.851c-1.9-1.706-5.235-1.6-7.667-.961,0,.161-.053.32.052.375,2.591-.213,4.125,2.023,6.453,2.289.529.107.951-.479,1.428-.052a48.106,48.106,0,0,1-7.352,3.3c-.794-.159-1.216-.906-1.851-1.333-1.005-1.117-2.855-.638-4.23-.745-.477.107-.9-.213-1.218,0a4.507,4.507,0,0,0,2.276,1.758c1.32.586,2.854-.055,4.071.745a5.015,5.015,0,0,1-1.111.747c-2.486.958-4.549,3.2-7.3,3.037A9.441,9.441,0,0,1,29.264-37a5.31,5.31,0,0,0-5.341-3.089c-.158.1-.37.1-.317.372,1.163.69,2.063,2.075,3.225,2.875.742.906,2.169,0,2.855,1.013a9.443,9.443,0,0,0,3.439,1.492,15,15,0,0,0,2.75.745l-.37.214c-4.811,1.6-10.366,1.758-15.759,1.544-1.587-.055-3.122-.534-4.708-.479a2.964,2.964,0,0,0,1.269.745,3.221,3.221,0,0,1-1.428.427,9.46,9.46,0,0,0-2.011.531,5.315,5.315,0,0,0-2.273.534,10.761,10.761,0,0,1-3.014,2.45c0,.214-.053.534.212.534,1-.427,2.273-.109,3.279-.534,1.743-.161,2.75-2.078,4.126-2.878,1.479-1.172,3.6-.9,5.394-.638,1.057.266-.106.693.211,1.385.424.372.793.8,1.377.638a.921.921,0,0,1,.368-.266,1.22,1.22,0,0,0,.053-1.333c.741-.479,1.746.055,2.539-.266,2.01-.052,4.02-.479,5.978-.534.317-.052.687-.372,1-.052-.157.427-.687.482-.475,1.065.1.479.635.693,1.056.8.53-.214,1.005-.586.794-1.279-.106-.372-.528-.425-.794-.586,1.111-.534,2.38-.693,3.491-1.224a9.955,9.955,0,0,0,2.221-.747c.688-.052,1.27-.69,1.9-.425a11.008,11.008,0,0,1-1.111,2.557c-.844,2.823-1.48,6.552,0,9.268.16.052.212-.055.319-.107-1.111-2.823-.477-6.073.475-8.737.741-4.526,5.4-5.859,8.728-7.565l.157.216c-.9,2.341-2.22,4.581-2.009,7.4.105.479-.211.956,0,1.279A5.609,5.609,0,0,0,48.832-32.1c.371-2.4-1-5.378,1.431-7.135,4.336-1.706,8.408-3.943,13.432-3.995.159.159.53-.107.581.211-1.058,1.172-2.59,2.292-3.068,3.729-1.691,2.344-1.639,6.339-.9,9.216.477,1.651-.951,2.557-1.64,3.836-.328.451-.422,1.227-.725,1.747l1.043.117a5.666,5.666,0,0,0,1.8-3.518,1.46,1.46,0,0,0,1,1.068c.37-.586-.318-1.013-.371-1.6.847-.479,1.219.586,1.905.8a13.551,13.551,0,0,0,3.224.745l.371-.372c-1.163-1.81-3.49-2.13-5.5-2.237-1.056-1.758-1.056-3.94-.951-6.073a9.324,9.324,0,0,1,1.058-3.3,7.928,7.928,0,0,1,1.481-2.023A7.341,7.341,0,0,1,66.34-42.7H66.5a.243.243,0,0,0,.052.161c-1.427,1.117-1.585,2.661-2.431,4.047a4.45,4.45,0,0,0-.477,4.633c.318.693.159,1.758.9,2.24a11.833,11.833,0,0,0,1.11-3.25c-.159-1.758-1.215-3.409-.211-5.115A4.366,4.366,0,0,1,68.3-42.328c2.908-.266,5.447,1.227,7.985,2.344.531.372,1.429.693,1.535,1.437a4.529,4.529,0,0,1-1.957,3.57,4.5,4.5,0,0,1-4.814-.052,3.654,3.654,0,0,1-.845-3.25,2.181,2.181,0,0,1,2.327-.852c.529.266,1,.8,1.692.479a.673.673,0,0,0,.211-.854c-.581-.318-.792-1.117-1.587-1.224a3.431,3.431,0,0,0-2.907.586,3.755,3.755,0,0,0-1.217,3.729A4.561,4.561,0,0,0,72-33.005,6.142,6.142,0,0,0,78.5-35.242a7.217,7.217,0,0,0,1.164-2.292A13.815,13.815,0,0,1,85.114-30.5a11.278,11.278,0,0,1,.053,2.664l1.85.159a1.769,1.769,0,0,1,.16-1.276,16.032,16.032,0,0,1,5.447-8.737c.9-.534.687.693.9,1.065a7.123,7.123,0,0,0,4.6,4.049,5.8,5.8,0,0,0,5.711-1.865c.687-1.279,1.535-3.146.37-4.477A3.65,3.65,0,0,0,101.3-40.3a3.591,3.591,0,0,0-2.908,1.971c0,.424-.054.9.316,1.117.211,0,.635.052.794-.266.107-.8.793-1.172,1.428-1.6a1.646,1.646,0,0,1,1.693.32,2.785,2.785,0,0,1,.74,2.078,3.2,3.2,0,0,1-1.744,2.5,5.37,5.37,0,0,1-5.079-.479A11.72,11.72,0,0,1,95.057-37a3.874,3.874,0,0,1,0-2.451,17.87,17.87,0,0,1,7.562-2.664,5.385,5.385,0,0,1,2.8,1.758c2.433,2.505-.527,6.073,1.164,8.841.635-.1.635-.956.9-1.49.8-1.917-.211-3.995-.687-5.859a10.937,10.937,0,0,0-2.011-3.143,1.338,1.338,0,0,1,.635-.107,13.118,13.118,0,0,1,3.227,2.771,14.308,14.308,0,0,1,2.063,8.734c-.421,1.6-2.115,2.346-3.437,2.93a4.938,4.938,0,0,0-1.428,1.706c.635.372,1.534,0,2.168-.266,1-.375,1.587-1.654,2.276-2.237.1.052.053.213.1.32.054.583-.263,1.383.265,1.542a18.987,18.987,0,0,0,.477-2.716,5.3,5.3,0,0,1,1,2.664c.476.958,1.27,2.237,2.537,2.4.318-.479-.052-.961-.158-1.385-.159-1.333-1.27-2.026-2.009-2.984-1.851-2.557-1.005-6.552-2.433-9.427a11.188,11.188,0,0,0-2.856-3.943l.211-.213c2.591-.052,4.76.8,7.14,1.279,2.909,1.437,7.14,1.12,8.515,4.9a13.989,13.989,0,0,0,3.015,5.753l.159-.107a2.171,2.171,0,0,0,0-1.971c-.318-2.661-2.645-3.3-3.863-5.539l.159-.213a36.159,36.159,0,0,1,3.861,1.227c4.232,1.172,7.192,5.325,7.721,9.641a20.852,20.852,0,0,1-1.956,9.107c-.159.43-.9.906-.424,1.279.582-.425.687-1.117,1.006-1.6a14.836,14.836,0,0,0,1.745-10.706c-.053-.693-.845-1.227-.477-1.917a1.687,1.687,0,0,0,.9.477c.319-.214.795-.214,1.007-.586.052-.32.261-.693,0-.958a1.458,1.458,0,0,0-1.535-.372,2.554,2.554,0,0,0-.636,1.172,10.984,10.984,0,0,0-1.9-2.823l.106-.159c2.381.8,4.548,1.969,6.981,2.609a3.466,3.466,0,0,0,1.852.586,52.9,52.9,0,0,0,6.5,1.651c1.587-.159,2.909.586,4.5.214v-.107l-.053.052c-.583-.745-1.849-.052-2.539-.586a39.84,39.84,0,0,1-10.419-2.609c.052-.159.265-.107.424-.107a1.369,1.369,0,0,0,.844-1.331,1.428,1.428,0,0,0-1.216-.586,1.488,1.488,0,0,0-.793.9,1.322,1.322,0,0,0,.793,1.013c-.1.107-.317.055-.475.055-1.64-.747-3.228-1.44-4.813-2.185-.582-.107-1.058-.586-1.64-.693-1.216-.586-2.433-1.172-3.651-1.651-3.382-1.758-7.138-2.716-10.734-3.995-.793-.213-1.535-.427-2.275-.638-1.322-.375-2.644-.7-3.966-1.068-4.5-1.117-10.525-1.224-14.439,1.227-.634-.214-1.005.8-1.323.159,1.111-2.93,4.338-3.888,7.245-3.995,21.209-.214,41.095-.372,61.985-.693,2.433,0,4.813-.852,6.081-3.037a5.346,5.346,0,0,0,.371-4.9h0"/>
        <path id="path254" d="M144.5-37.745c0,.156.319.211.212.477-1.851,1.654-4.441,2.133-7.087,2.24-.212.052-.424.211-.687.159-.159-.107-.212-.266-.1-.372a8.064,8.064,0,0,1,7.665-2.5h0"/>
        <path id="path256" d="M135.992-36.893c.209.745-.264,1.172-.848,1.437a1.507,1.507,0,0,1-1.161-.854c-.159-.425.211-.638.371-.9a1,1,0,0,1,1.639.32h0"/>
        <path id="path258" d="M35.453-36.786a1.092,1.092,0,0,1-.263,1.117,1.071,1.071,0,0,1-.954.266c-.37-.052-.581-.479-.687-.8a1.149,1.149,0,0,1,.687-1.013c.423,0,.9-.055,1.217.427h0"/>
        <path id="path260" d="M25.986-33.325v.372a4.12,4.12,0,0,1-3.438-.8,7.08,7.08,0,0,0-2.8-2.664c0-.161-.319-.372,0-.479,2.643,0,4.231,2.13,6.24,3.568h0"/>
        <path id="path262" d="M152.545-36.841c-1.219,1.813-2.275,4.049-4.441,4.849-.372,0-.688.531-1.007.159a9.737,9.737,0,0,1,4.708-5.06,1.747,1.747,0,0,1,.74.052h0"/>
        <path id="path264" d="M38.521-36.2c.053.586-.37.693-.741,1.01-.423.055-.634-.266-.9-.586-.211-.534.266-.745.53-1.01a1.1,1.1,0,0,1,1.111.586h0"/>
        <path id="path266" d="M159.208-35.883c-.475.693-.264,1.706-.739,2.453-1.059,1.224-1.959,2.607-3.649,2.875-.264-.531.369-1.065.635-1.547.741-1.6,1.8-3.406,3.489-4.1l.264.318h0"/>
        <path id="path268" d="M9.591-35.4a1.055,1.055,0,0,1,0,1.174,1.246,1.246,0,0,1-1.217.211A.991.991,0,0,1,7.952-35.3c.318-.479,1.267-.745,1.639-.107h0"/>
        <path id="path270" d="M6.577-34.763c.053.266.21.479.157.745A1.239,1.239,0,0,1,6-33.378,1.105,1.105,0,0,1,4.78-34.07a1.042,1.042,0,0,1,.526-1.12,1.079,1.079,0,0,1,1.271.427h0"/>
        <path id="path272" d="M12.816-34.443c.107.424.213,1.172-.421,1.276-.741.323-1.165-.211-1.587-.638a1.214,1.214,0,0,1,.635-1.065,1.46,1.46,0,0,1,1.373.427h0"/>
        <path id="path274" d="M21.491-33.75c-.053.372.053.906-.371,1.01-.263.268-.74.161-1,.107-.106-.32-.689-.586-.369-.958a1.984,1.984,0,0,1,.74-.586c.317.159.795,0,1.005.427h0"/>
        <path id="path276" d="M164.285-33.378c-.159.372-.369.852-.793.852-.475-.052-.951-.107-1.215-.589-.212-.583.264-.9.688-1.063.527,0,1.216.213,1.32.8h0"/>
        <path id="path278" d="M154.608-33.114c.053.43-.423.747-.635.909a1.281,1.281,0,0,1-1.641-.8,1.368,1.368,0,0,1,.9-.958,1.386,1.386,0,0,1,1.375.849h0"/>
        <path id="path280" d="M161.166-33.219a1.105,1.105,0,0,1-.476.906,1.221,1.221,0,0,1-1.271-.213c-.476-.427-.105-.8.212-1.12.476-.266,1.373-.213,1.535.427h0"/>
        <path id="path282" d="M8.216-32.312a1.124,1.124,0,0,1-.634,1.331,1.214,1.214,0,0,1-1.163-.745,1,1,0,0,1,.529-1.117,1.207,1.207,0,0,1,1.269.531h0"/>
        <path id="path284" d="M151.965-31.726a1.176,1.176,0,0,1-.743,1.385c-.421.1-.688-.107-1-.375-.212-.266-.476-.852-.052-1.117a1.04,1.04,0,0,1,1.8.107h0"/>
        <path id="path286" d="M36.669-31.141c.211.586-.421.693-.58,1.01-.213.107-.635.159-.794-.052-.265-.32-.581-.641-.424-1.12.264-.213.37-.424.688-.531.582-.159.8.372,1.11.693h0"/>
        <path id="path288" d="M163.333-30.768c.107.372-.209.531-.264.8a1.414,1.414,0,0,1-1.216.216c-.476-.268-.476-.693-.476-1.172.317-.214.371-.479.74-.589a1.209,1.209,0,0,1,1.216.747h0"/>
        <path id="path290" d="M160.056-30.609c.211.638-.371.961-.793,1.12-.212.052-.529-.107-.583.214a13.927,13.927,0,0,1,3.279,2.823v.424a7.136,7.136,0,0,1-5.236-2.023c-.369-.266-1-.266-1.427-.638.687-.693,1.957-.427,2.908-.479.688-.747-.793-1.279.105-1.917.317-.055.529-.375.953-.268a1.814,1.814,0,0,1,.793.745h0"/>
        <path id="path292" d="M138.422-30.555c.107.266-.209.583-.261.852A1.062,1.062,0,0,1,137-29.49c-.265-.372-.691-.693-.529-1.227a1.1,1.1,0,0,1,1.955.161h0"/>
        <path id="path294" d="M20.169-28.69c-.159.479-.372.8-.9.852a1.05,1.05,0,0,1-.952-.638c-.054-.372.213-.586.265-.854.583-.479,1.639-.159,1.587.641h0"/>
        <path id="path296" d="M24.453-29.383c0,.745-.794,1.172-1.058,1.917-.794,1.758-2.22,3.357-4.23,3.516-.212-.479.688-1.065.9-1.544.845-1.81,2.538-2.768,4.073-3.888h.317"/>
        <path id="path298" d="M137.154-28.638c.052.586-.476,1.013-.9,1.227-.475.159-.847-.214-1.111-.427-.421-.425-.157-.852.055-1.279.635-.638,1.533-.107,1.956.479h0"/>
        <path id="path300" d="M140.434-28.263a1.316,1.316,0,0,1-.952,1.172c-.107-.161-.371-.055-.529-.109a1.169,1.169,0,0,1-.689-.956c.265-.268.372-.693.741-.747.477-.052,1.271,0,1.429.641h0"/>
        <path id="path302" d="M32.649-28.318a1.146,1.146,0,0,1-.792,1.117,1.034,1.034,0,0,1-1.005-.638c-.1-.479.37-.8.634-1.065.635-.214.795.266,1.163.586h0"/>
        <path id="path304" d="M36.3-28.1a1.26,1.26,0,0,1-1.006.9c-.37-.1-.793-.211-.953-.638-.051-.531.371-.8.74-1.065a1.118,1.118,0,0,1,1.219.8h0"/>
        <path id="path306" d="M151.8-24.375c.264.211.74.477.633.852-.845.372-1.533-.586-2.325-.745a10.916,10.916,0,0,1-2.751-4.263c.476-.479,1,.107,1.428.268a10.418,10.418,0,0,1,3.015,3.888h0"/>
        <path id="path308" d="M153.762-28.1a1.328,1.328,0,0,1-.107,1.172c-.317.531-1.005.427-1.48.318-.265-.318-.741-.745-.424-1.224.159-.425.635-.531,1.005-.693.368-.052.633.268,1.005.427h0"/>
        <path id="path310" d="M41.163-26.719c.055.425.16,1.065-.369,1.331a1.025,1.025,0,0,1-1.269-.641c-.263-.638.316-.745.635-1.063.422-.109.686.1,1,.372h0"/>
        <path id="path312" d="M140.276-23.258a7.773,7.773,0,0,1,1.373,3.784c-.16.372.265.745-.052,1.01h-.211c-2.381-1.7-2.909-4.1-3.808-6.5a.437.437,0,0,1-.213-.534c.529-.479.9.479,1.429.641l1.481,1.6h0"/>
        <path id="path314" d="M48.039-25.068c-.053.052,0,.107.053.107-2.113,1.49-5.077,2.4-7.509.958a.405.405,0,0,1,.264-.479c1.535-.479,3.015-1.227,4.655-1.013l2.537.427h0"/>
        <path id="path316" d="M35.981-24.8c-1.8,1.12-3.436,3.3-5.659,3.836-.423.159-.686.745-1.215.424.953-2.878,4.072-4.419,6.874-4.687v.427"/>
        <path id="path318" d="M137.154-22.406c.157.427,0,1.013-.423,1.12a.731.731,0,0,1-1,0c-.476-.214-.476-.693-.476-1.065.156-.372.528-.427.793-.586.475.107.845.107,1.109.531h0"/>
        <path id="path320" d="M132.765-22.138a2.965,2.965,0,0,1-1.9,1.383c-1.8.641-3.437-.211-5.025-.638.053-.425.582-.266.847-.534a11.514,11.514,0,0,1,5.393-.266.558.558,0,0,1,.689.055h0"/>
        <path id="path322" d="M35.981-20.594c-.158.213-.21.693-.635.852a1.1,1.1,0,0,1-1.055-.211c-.106-.323-.478-.589-.213-.961.107-.372.529-.479.846-.586a1.131,1.131,0,0,1,1.057.906h0"/>
        <path id="path324" d="M39.1-20.114a1.958,1.958,0,0,1-.739,1.013,1.167,1.167,0,0,1-1.061-.372,1.272,1.272,0,0,1-.157-1.068c.106-.266.475-.32.74-.479.529-.052,1,.479,1.216.906h0"/>
        <path id="path326" d="M136.149-19.583a1.415,1.415,0,0,1-.369,1.013.9.9,0,0,1-1.163.213c-.369-.055-.477-.479-.635-.745-.317-.427.211-.7.371-1.065a1.15,1.15,0,0,1,1.8.583h0"/>
        <path id="path328" d="M138.477-19.687c.052.266.212.531.107.745-.32.266-.531.958-1.165.693-.315.1-.475-.32-.633-.427a1.014,1.014,0,0,1,.633-1.437c.476-.161.795.266,1.059.427h0"/>
        <path id="path330" d="M37.2-18.146a1.447,1.447,0,0,1-.531,1.44c-.58.107-1.323.107-1.534-.586a1.428,1.428,0,0,1,.636-1.544,1.274,1.274,0,0,1,1.429.69h0"/>
        <path id="path332" d="M40.212-18.357c-.105,1.49-.423,3.3-1.9,4.154-.847.161-1.694.961-2.539.427v-.266c1.109-1.6,3.12-2.825,4.442-4.315h0"/>
        <path id="path334" d="M127.847-17.133c.21.32-.159.589-.317.854-.317.372-.9.211-1.269.052s-.424-.693-.265-1.065a1.073,1.073,0,0,1,.687-.586c.477-.052.9.372,1.163.745h0"/>
        <path id="path336" d="M45.5-14.682c.739,1.227.318,2.878.739,4.208-.9.107-1.269-.906-1.851-1.437-1.162-1.6-1-3.729-1.533-5.594a.281.281,0,0,1,.371-.107,13.54,13.54,0,0,1,2.008,2.237c-.1.372.318.372.265.693h0"/>
        <path id="path338" d="M130.491-16.706c0,.427-.477.534-.741.8a1.946,1.946,0,0,1-1-.479c-.16-.534.264-.693.528-.958a.88.88,0,0,1,1.216.638h0"/>
        <path id="path340" d="M136.785-11.964c0,.159-.053.477-.317.37h-.213c-1.532-1.383-3.067-2.927-2.855-5.06l.317-.052c1.427,1.227,3.015,2.557,3.068,4.742h0"/>
        <path id="path342" d="M132.818-13.669a1.234,1.234,0,0,1-.476,1.01c-.582.161-1.48.107-1.587-.69-.052-.534.53-.8.795-1.065a1.084,1.084,0,0,1,1.269.745h0"/>
        <path id="path344" d="M129.326-12.552c-.74,1.971-2.75,2.984-4.124,4.477-.264-.161-.158-.586-.105-.8a7.369,7.369,0,0,1,4.072-4.794c.845.107,0,.693.158,1.117h0"/>
        <path id="path346" d="M133.294-10.953c0,.479-.477.693-.74.958a1.548,1.548,0,0,1-1.164-.586c-.054-.531.369-.693.686-.958a1.1,1.1,0,0,1,1.218.586h0"/>
        <path id="path348" d="M94.013-107.24h-.584c-1.532,0-.232,1.859.591,1.859,1.024,0,1.089-1.859-.007-1.859Zm-4.737,1.859c1.533,0,.083-1.859-.741-1.859H87c-1.533,0-.084,1.859.742,1.859Zm-6.425,0c1.533,0,.083-1.859-.742-1.859H80.58c-1.533,0-.082,1.859.739,1.859h1.534Zm11.089-2.278a1.312,1.312,0,0,1,1.308,1.317,1.311,1.311,0,0,1-1.308,1.318H78.257a1.313,1.313,0,0,1-1.307-1.318,1.314,1.314,0,0,1,1.307-1.317H93.94"/>
        <path id="path350" d="M94.052-83.346c0,.694.929.231,1.618.231s1.619.463,1.619-.231c0-.984-.929-.642-1.619-.642S94.052-84.33,94.052-83.346Zm2.936,1.636c.673,0,.733-.927.733-1.727,0-1.818-1.44,0-2.176-1.711-.537,1.443-2.016.107-2.016,1.657,0,1.069-.006,1.781,1.055,1.781h2.4Zm-4.422-7.956,3,1.151,2.945-1.151-1.167,4.41,2.334-.482-.8,2.673.8,2.567-2.07-.562.9,4.757-2.945-1.148-3,1.148,1.22-4.757L91.4-80.39l.639-2.674L91.4-85.63l2.283.375-1.115-4.41h0"/>
        <path id="path352" d="M85.552-83.176v-.56l-.5-.1.394-.408L85.2-84.69l.514.054.311-.546.3.537.522-.045-.246.449.394.408-.5.1v.56l-.474-.355-.473.355h0"/>
        <path id="path354" d="M83.227-80.182v-.559l-.5-.1.394-.41-.244-.449.514.053.313-.545.3.539.521-.046-.244.449.394.41-.5.1v.559l-.473-.355-.474.355h0"/>
        <path id="path356" d="M87.172-80.562v-.56l-.5-.095.394-.41-.244-.451.515.055.311-.545.3.538.522-.047-.242.451.391.41-.5.095v.56l-.475-.356-.475.356h0"/>
        <path id="path358" d="M87.638-78.326v-.317l-.284-.054.222-.23-.139-.255.292.031.176-.308.171.3.3-.027-.138.255.221.23-.282.054v.317l-.268-.2-.267.2h0"/>
        <path id="path360" d="M83.973-75.767v-.959l-.86-.163.673-.7-.417-.77.881.093.535-.936.521.923.894-.08-.418.77.672.7-.859.163v.959l-.811-.608-.813.608h0"/>
        <path id="path362" d="M85.84-126.013l1.862,4.58,4.717-1.389L90.026-118.5l4.018,2.849-4.848.811.294,4.941-3.649-3.314L82.187-109.9l.3-4.941-4.847-.811,4.019-2.849-2.394-4.323,4.716,1.39,1.864-4.58h0"/>
        <path id="path364" d="M68.776-23.289c-.56.211-.779.365-.641.945l.665,2.807a2.52,2.52,0,0,1-.186,1.841A3.417,3.417,0,0,1,66.7-16.557a3.87,3.87,0,0,1-2.26-.042,1.666,1.666,0,0,1-1.1-1.419l-.7-2.94c-.175-.739-.451-.693-1.049-.6l-.053-.221,3.545-.849.054.219c-.687.193-1.01.279-.828,1.055L65-18.419c.119.5.407,1.716,1.917,1.354a1.709,1.709,0,0,0,1.415-2.359L67.7-22.109c-.126-.537-.324-.807-1.234-.622l-.052-.221,2.307-.555.053.219h0"/>
        <path id="path366" d="M74.03-22.7a2.261,2.261,0,0,0-2.422-1.175c-.549.122-1.069.518-.942,1.091.1.477.348.625,1.316.8l1.688.3a1.878,1.878,0,0,1,1.517,1.367c.17.776-.268,2-2.206,2.427a9.258,9.258,0,0,1-1.867.1c-.223.049-.239.221-.249.372l-.306.068-.48-2.182.3-.07a2.251,2.251,0,0,0,2.576,1.411c1.265-.281,1.124-1.169,1.1-1.284-.129-.591-.671-.693-1.417-.815l-.767-.125c-1.96-.323-2.128-1.083-2.217-1.49-.12-.539-.057-1.813,1.943-2.26a9.528,9.528,0,0,1,1.708-.073c.242-.055.266-.2.281-.378l.316-.07.422,1.914-.3.068h0"/>
        <path id="path368" d="M81.01-19.211l-3.834.367-.021-.224c.779-.13,1.035-.172.964-.93l-.453-4.75c-.746.107-1.849.258-1.928,1.721l-.313.031-.139-1.815,6.445-.62.192,1.81-.31.029c-.352-1.422-1.462-1.359-2.208-1.323l.451,4.75c.075.766.332.758,1.132.727l.02.227h0"/>
        <path id="path370" d="M85.308-22.427c1.411.016,1.976-.172,2-1.346A1.137,1.137,0,0,0,86.028-25.1c-.593-.01-.617.089-.675.367l-.045,2.31Zm4.671,3.213-2.211-.042-2.175-2.878-.291-.005-.035,1.773c-.015.727.221.758.934.851l-.006.227-3.643-.07,0-.227c.737-.06.951-.083.965-.815l.079-4c.015-.779-.318-.8-.931-.852l0-.227,3.473.068c.755.016,3.037.133,3.008,1.654-.021,1.115-1.137,1.375-1.722,1.516l2.117,2.622a.538.538,0,0,0,.437.182l0,.224h0"/>
        <path id="path372" d="M94.057-20.833l-.811-2.315-1.277,2.055Zm3,2.531-3.467-.435.029-.224c.668.036.862.052.9-.245a4.617,4.617,0,0,0-.344-1.255l-2.408-.3a5.411,5.411,0,0,0-.615,1.1c-.043.341.469.432.83.5l-.028.224-2.172-.273.029-.224c.585,0,.773-.286,1.177-.919l2.987-4.622.3.036,1.8,5.023c.363,1.021.5,1.349,1.013,1.393l-.029.227h0"/>
        <path id="path374" d="M103.337-17.023,97.2-18.151l.041-.221c.606.044.929.078,1.028-.466l.781-4.31c.1-.589-.325-.685-.8-.8l.04-.221,3.7.68-.041.221c-.748-.107-1.079-.159-1.22.625l-.761,4.2c-.078.43.143.542.854.672a2.644,2.644,0,0,0,3-1.25l.308.055-.8,1.943h0"/>
        <path id="path376" d="M107.407-16.112l-3.694-.776.047-.224c.577.078,1,.128,1.111-.422l.887-4.289c.121-.586-.372-.706-.853-.836l.046-.219,3.695.773-.046.224c-.5-.086-1.007-.185-1.132.419l-.888,4.286c-.117.568.3.682.872.839l-.045.224h0"/>
        <path id="path378" d="M111.851-17.617l-.861-2.3-1.232,2.086Zm3.057,2.466-3.479-.362.022-.224c.67.023.865.034.895-.263a4.684,4.684,0,0,0-.371-1.247l-2.415-.253a5.093,5.093,0,0,0-.592,1.115c-.034.341.479.422.841.477l-.021.227-2.18-.227.024-.227c.586-.01.769-.3,1.159-.943l2.886-4.687.3.029,1.91,4.987c.384,1.013.525,1.339,1.041,1.372l-.021.227h0"/>
        <path id="path380" d="M85.443-87.785c-.635,0-1.49.437-1.49-.316,0-1.066.722-.828,1.358-.828s1.619-.238,1.619.828c0,.753-.854.316-1.487.316Zm1.883-.416c0-2.177-1.218-.138-1.893-1.987-.494,1.563-1.962.247-1.962,1.929a1.328,1.328,0,0,0,.479,1.22v.642a.3.3,0,0,0,.3.3h2.309a.3.3,0,0,0,.3-.3v-.7a1.416,1.416,0,0,0,.468-1.108h0"/>
        <path id="path382" d="M106.25-61.513a.943.943,0,0,0,1-.878.945.945,0,0,0-1-.88.945.945,0,0,0-1,.88.943.943,0,0,0,1,.878h0"/>
        <path id="path384" d="M101.563-93.726a5.49,5.49,0,0,0-.469.935.5.5,0,0,0,.475.521.5.5,0,0,0,.474-.521c0-.017-.481-.935-.481-.935h0"/>
        <path id="path386" d="M69.62-93.726a5.5,5.5,0,0,0-.467.935.5.5,0,0,0,.474.521.5.5,0,0,0,.474-.521c0-.017-.481-.935-.481-.935h0"/>
        <path id="path388" d="M77.6-93.726a5.5,5.5,0,0,0-.466.935.5.5,0,0,0,.473.521.5.5,0,0,0,.474-.521c0-.017-.481-.935-.481-.935h0"/>
        <path id="path390" d="M85.591-93.726a5.5,5.5,0,0,0-.467.935.5.5,0,0,0,.473.521.5.5,0,0,0,.475-.521c0-.017-.481-.935-.481-.935h0"/>
        <path id="path392" d="M93.576-93.726a5.5,5.5,0,0,0-.467.935.5.5,0,0,0,.474.521.5.5,0,0,0,.475-.521c0-.017-.482-.935-.482-.935h0"/>
        <path id="path394" d="M69.635-82.762a5.467,5.467,0,0,1,.466.936.5.5,0,0,1-.474.52.5.5,0,0,1-.474-.52c0-.017.482-.936.482-.936h0"/>
        <path id="path396" d="M69.635-72.108a5.537,5.537,0,0,1,.466.935.5.5,0,0,1-.474.521.5.5,0,0,1-.474-.521c0-.016.482-.935.482-.935h0"/>
        <path id="path398" d="M70.912-63.675a5.549,5.549,0,0,1,.469.935.5.5,0,0,1-.476.521.5.5,0,0,1-.474-.521c0-.016.481-.935.481-.935h0"/>
        <path id="path400" d="M77.61-59.193a5.485,5.485,0,0,1,.468.937.5.5,0,0,1-.473.521.5.5,0,0,1-.475-.521c0-.016.481-.937.481-.937h0"/>
        <path id="path402" d="M101.968-82.762a5.471,5.471,0,0,0-.465.936.5.5,0,0,0,.473.52.5.5,0,0,0,.474-.52c0-.017-.482-.936-.482-.936h0"/>
        <path id="path404" d="M101.968-72.108a5.541,5.541,0,0,0-.465.935.5.5,0,0,0,.473.521.5.5,0,0,0,.474-.521c0-.016-.482-.935-.482-.935h0"/>
        <path id="path406" d="M100.69-63.675a5.555,5.555,0,0,0-.467.935.5.5,0,0,0,.475.521.5.5,0,0,0,.473-.521c0-.016-.481-.935-.481-.935h0"/>
        <path id="path408" d="M93.991-59.193a5.493,5.493,0,0,0-.466.937.5.5,0,0,0,.473.521.5.5,0,0,0,.475-.521c0-.016-.482-.937-.482-.937h0"/>
        <path id="path410" d="M85.838-54.44a5.457,5.457,0,0,0-.466.935.5.5,0,0,0,.473.521.5.5,0,0,0,.474-.521c0-.018-.481-.935-.481-.935h0"/>
        <path id="path412" d="M98.833-70.333c.1.152.352.2.669.093l.3-.86c.025-.06-.349-.4-.57-.346-.854.2-1.757.3-2.26,1.114a1.67,1.67,0,0,0,.8,1.315c.3-.1.351.2.552.354a.356.356,0,0,1-.351.457c-.6-.608-1.657.2-2.11-.559.2-.758.6-1.619-.051-2.328.051-.151.3-.3.151-.455-.251-.708-1-.152-1.457-.152a1.923,1.923,0,0,0-1.809.91,1.41,1.41,0,0,0,.4.76c.2-.051.3,0,.353.2l-.5.3a1.072,1.072,0,0,1,.2.556c-.353.152-.7-.354-.855-.607,0-.405.051-1.113-.5-1.216a2.138,2.138,0,0,0-.434.148,1.454,1.454,0,0,0-.207.837,3.445,3.445,0,0,0,.2.905,8.7,8.7,0,0,1,1.9,1.855c-.453.91-.453,2.175-1.507,2.681a.844.844,0,0,0-.3.811l.251.2c.654-.354,1.909-.456,1.81-1.569a4.009,4.009,0,0,1,.953-1.316,1.043,1.043,0,0,1,1.156.556,1.979,1.979,0,0,1-1.356,1.517c-.1.1-.05.254-.05.406.2.354.754.2,1.055.153.855-.559,1.208-1.57,1.96-1.873.1.507-1.005.658-.3,1.163.451-.1,1.055.051,1.356-.557-.352-.859,1.205-1.265.251-2.023,0-.758.8-1.061.753-1.873-.3-.808-1.256-.808-1.506-1.568a1.11,1.11,0,0,1,1.055,0h0"/>
        <path id="path414" d="M62.135-61.125a.944.944,0,0,0,1-.878.944.944,0,0,0-1-.878.943.943,0,0,0-1,.878.943.943,0,0,0,1,.878h0"/>
        <path id="path416" d="M10.339-30.864a.962.962,0,0,0,.981-.943.962.962,0,0,0-.981-.94.961.961,0,0,0-.981.94.962.962,0,0,0,.981.943h0"/>
        <path id="path418" d="M43.166-23.609c.041,0,.057-.005.057-.039a.034.034,0,0,0-.037-.039c-.019,0-.019.005-.02.013Zm.137.091h-.065l-.063-.081h-.008v.049c0,.023.007.023.026.026v.005h-.105v-.005c.021,0,.028,0,.028-.026v-.115c0-.023-.01-.023-.028-.026V-23.7h.1c.022,0,.09,0,.09.047s-.032.039-.048.044l.063.075a.015.015,0,0,0,.012.005v.005"/>
        <path id="path420" d="M43.442-23.643a.068.068,0,0,0-.062-.049c-.016,0-.033.01-.033.026s.007.021.031.031l.046.018a.056.056,0,0,1,.035.049c0,.023-.02.055-.079.055a.3.3,0,0,1-.053-.008c-.007,0-.008.005-.01.008h-.01v-.065h.01a.068.068,0,0,0,.065.057c.037,0,.04-.026.04-.031s-.017-.023-.036-.031l-.022-.008c-.054-.023-.054-.044-.054-.057s.01-.052.069-.052a.232.232,0,0,1,.05.01c.007,0,.009-.005.011-.01h.009v.057h-.009"/>
        <path id="path422" d="M43.773-23.69a.028.028,0,0,0-.021.018l-.063.159h-.009l-.053-.125h0l-.06.125H43.56l-.067-.159a.026.026,0,0,0-.022-.018V-23.7h.092v.005c-.011,0-.019,0-.019.013a.021.021,0,0,0,0,.008l.037.1h0l.036-.081-.011-.026c0-.005-.007-.008-.023-.01V-23.7h.1v.005c-.014,0-.024,0-.024.01a.053.053,0,0,0,.005.016l.033.089h0l.035-.091a.026.026,0,0,0,0-.01c0-.01-.012-.01-.022-.013V-23.7h.057v.005"/>
        <path id="path424" d="M43.856-23.6s.013,0,.013,0,0-.018,0-.023c0-.052-.005-.07-.025-.07s-.019.018-.019.039c0,.036.007.057.028.057Zm-.075.076a.1.1,0,0,0,.085-.068c-.005,0-.008,0-.014,0a.034.034,0,0,1-.015,0,.053.053,0,0,1-.058-.057.064.064,0,0,1,.069-.06.073.073,0,0,1,.072.081c0,.047-.045.1-.14.107v-.008"/>
        <path id="path426" d="M43.963-23.641a.137.137,0,0,1,.067.013.053.053,0,0,1,.034.049c0,.034-.034.063-.091.063-.023,0-.044-.008-.044-.023a.017.017,0,0,1,.019-.016c.021,0,.04.023.06.023a.029.029,0,0,0,.031-.029c0-.016-.017-.029-.034-.034a.2.2,0,0,0-.068-.01l.031-.091h.1l-.013.034h-.087l-.006.021h0"/>
        <path id="path428" d="M103.177-66.448a6.332,6.332,0,0,1-2.391,4.911L86.892-52.7h-.076a1.718,1.718,0,0,1-1.068.378,1.714,1.714,0,0,1-1.089-.393L70.787-61.536a6.34,6.34,0,0,1-2.392-4.911V-94h34.782Zm1.039-28.544v-.021H67.358v.021h-.006l.029,28.166c0,2.873,1.218,5.385,2.9,6.159l14.174,9a1.724,1.724,0,0,0,1.294.583,1.718,1.718,0,0,0,1.152-.451l14.394-9.133c1.682-.773,2.9-3.286,2.9-6.159l.029-28.166h0"/>
        <path id="path430" d="M90.748-53.937l.447-.216a2.32,2.32,0,0,0-.447.216h0"/>
        <path id="path432" d="M59.435-17.182,58.1-19.24l-.756,2.3Zm3.511,1.745-3.474.4-.025-.227c.66-.12.852-.151.817-.448a4.554,4.554,0,0,0-.631-1.141l-2.41.281a5.185,5.185,0,0,0-.339,1.214c.039.341.557.31.923.284l.027.227-2.177.25-.026-.224c.571-.138.685-.461.931-1.172l1.811-5.2.3-.037,2.932,4.453c.595.906.8,1.193,1.313,1.115l.026.224h0"/>
        <path id="path434" d="M122.61-26.614a3.029,3.029,0,0,1-2.273,1.812c.053-1.279,1.216-2.185.794-3.622A3.184,3.184,0,0,0,117.8-29.49c-.475.32-.263.852-.423,1.333l-.211,1.755c-1.059,0-1.111-.958-1.428-1.7a3.084,3.084,0,0,1,1.639-2.771,3.638,3.638,0,0,1,3.068.107,2.371,2.371,0,0,1,1.745,1.12c.794.745.582,2.075.423,3.034Zm-4.284.534c.583-.586-.158-3.943,1.482-1.758,0,.427.052,1.065-.371,1.385C119.172-26.24,118.749-25.815,118.326-26.081Zm.583,1.333c.052.849-.741.638-1.163.958h-1.27a2.913,2.913,0,0,1-.158-1.492A10.539,10.539,0,0,1,118.909-24.747Zm1.48,6.5c-.422.534-.053,1.383-.581,1.865,0,.958-.795,1.438-1.482,1.81-6.293,1.385-12.481-.745-18.562-1.81-8.516-1.865-18.457-2.4-27.132-.427-4.072.745-8.038,1.706-11.952,2.823-2.433.32-5.077.693-7.4-.052-1.9-.906-1.111-3.357-1.694-5.06.106-1.333-.368-2.4-.421-3.677a3.142,3.142,0,0,1-.211-1.385c.791.107,1.586.693,2.432.906,4.443.852,8.409-.586,12.534-1.331a91.034,91.034,0,0,1,12.217-1.865c4.76-.052,9.625-.32,14.174.479,1.48.055,2.75.427,4.175.534,2.965.372,5.715,1.172,8.728,1.383a14.933,14.933,0,0,0,1.587.268c4.759.745,10.1,2.075,14.649,0,0,1.917-.793,3.675-1.058,5.539ZM93.523-14.362A3.567,3.567,0,0,1,94-12.018c-.528,1.013-1.586,1.013-2.537,1.224a1.648,1.648,0,0,1-1.216-.372.547.547,0,0,0-.211-.531c.157-.693-1.218-1.385-.265-1.971.845-.8,2.856-2.609,3.755-.693Zm1.163.214c.635.159.688.852.741,1.383a2.834,2.834,0,0,1-1.8,2.612,2.8,2.8,0,0,1-2.064.214,3.381,3.381,0,0,0,3.174-1.812Zm1.376,7.083a.215.215,0,0,0-.106.214c-1.534.055-2.539-.852-3.7-1.651L92.2-8.768c1.43.107,2.592,1.013,3.862,1.7Zm-1.956,4.9c-.054.159-.319.159-.424.052A28.311,28.311,0,0,1,90.349-8.5l.213-.052C91.83-6.479,92.836-4.187,94.106-2.164ZM91.461-3.443l-.265.107c-.264-.214-.159-.8-.1-1.12.316.268.582.641.37,1.013Zm-1.481-3.2c.054.531.582.745.265,1.224A1.625,1.625,0,0,1,89.979-6.638Zm-.316-3.357v-.159h.1v.159ZM86.6-2.323c-1,.052-2.539.638-3.491-.214.052-.427-.422-.638-.37-1.065.846-.32,1.585.693,2.38-.055a21.713,21.713,0,0,1,3.7.107c.583.161,1.481-.958,1.587.161C89.98-1.63,87.864-2.857,86.6-2.323ZM84.268-8.661l.263-.427a22.646,22.646,0,0,1-1.746,3.836C82.469-6.531,83.792-7.544,84.268-8.661Zm1.48-1.013c.688-.745,1.322.427,1.588,1.013C88.13-7.492,90.19-6.424,89.4-4.828c-1.007.906-2.592.055-3.7.747-.581-.055-1.587.107-1.9-.479A31.107,31.107,0,0,1,85.748-9.674ZM85.591-11.7H85.38l.316-.32C85.854-11.911,85.642-11.8,85.591-11.7Zm1.215.1c.211-.318.475-.8.846-.8,0,.052.051.107.106.161A2.7,2.7,0,0,1,86.806-11.594Zm.741.8a.4.4,0,0,1,.477,0Zm1.428,1.654c-.053.1.053.266-.106.372l-1.216-.958A1.281,1.281,0,0,1,88.974-9.141Zm-.106-3.25v.161h-.053v-.161Zm2.222-3.3c-.635.213-1.111.958-1.745,1.117A2.145,2.145,0,0,1,91.091-15.693Zm-2.645-.693c-.106-.482.476-.107.687-.32l1.64.107c-.848-.107-1.9,1.865-2.328.213Zm-3.86,1.49a5.933,5.933,0,0,1,.794-1.971,3.1,3.1,0,0,1,1.427.214c.106,1.068,1.428,2.505,0,3.411-.476.214-1.165.69-1.692.214A1.485,1.485,0,0,1,84.586-14.9Zm-.794,3.3c-.054-.211.105-.479.159-.745.263-.266.529.214.635.375a.783.783,0,0,1-.794.37Zm-.054-2.448h-.052v-.586h.052Zm-.633-1.6c-.687-.159-1.059-.958-1.8-.958a4.218,4.218,0,0,1,2.008-.055C83.58-16.279,83.157-15.958,83.1-15.641Zm-.582,4.315a8.858,8.858,0,0,1,.846-2.237A4.482,4.482,0,0,1,82.522-11.325Zm-1.163,0a12.7,12.7,0,0,1-2.539-.638c-.53-.534,0-1.12,0-1.706.741-1.172,2.855-1.758,3.861-.693A5.664,5.664,0,0,1,81.359-11.325Zm.476,1.437v.214h-.106V-9.94h.212a.324.324,0,0,0-.212.052ZM80.513-6.8A40.893,40.893,0,0,1,77.92-1.792c-.1.266-.53.32-.844.375,0-.747.74-1.333,1.057-1.971,1.11-1.44,1.428-2.984,2.7-4.367C81.147-7.437,80.513-7.224,80.513-6.8Zm-5.026-.534c1.27-.534,2.592-1.651,4.02-1.172A7.289,7.289,0,0,1,75.488-7.331Zm1.9-3.674a5.777,5.777,0,0,1,1.7-4.794,3.047,3.047,0,0,1,2.273.107c-1.375.372-3.121.69-3.439,2.45.054.69-.158,1.065.159,1.648.582,1.013,1.9.589,2.645,1.385a.688.688,0,0,1-.476.641,20.631,20.631,0,0,1-2.858-1.438Zm-24.8-17.1c.159-.427,0-1.065.581-1.172.37-.107.953-.107,1,.32a10.522,10.522,0,0,1-.264,1.865A1.226,1.226,0,0,1,52.588-28.1Zm.159,1.789c.792.583,1.9.318,2.856.479a2,2,0,0,1-.265,1.81c-.9-.214-2.063-.107-2.539-.958C52.906-25.357,52.641-25.891,52.747-26.315Zm-2.485-1.523A3.844,3.844,0,0,1,51.53-30.5a4.459,4.459,0,0,1,4.179.161,2.036,2.036,0,0,1,.848,1.011,2.378,2.378,0,0,1-.8,2.4h-.528a5.877,5.877,0,0,1,.317-2.4c-.052-.641-.581-.693-1-.958a3.081,3.081,0,0,0-2.381.534,2.406,2.406,0,0,0-.686,2.344c.37.586.052,1.383.263,2.023l-.159.213c-.632-.693-1.48-1.44-1.319-2.664ZM99.886-5.2a23.048,23.048,0,0,0,5.64,1.336c-.164.724-1.455.044-1.3,1.062-1.64-.638-3.543-.958-4.759-2.237.1-.055.212-.214.423-.161Zm-33.019.852-.739-.693c.369-.479,1.163-.214,1.744-.534a9.161,9.161,0,0,1,4.5-.638C70.782-4.932,68.719-4.773,66.867-4.346Zm57.119-24.292a5.566,5.566,0,0,0-3.6-3.3,4.634,4.634,0,0,0-4.6,1.172c-1.9,1.544-.581,4.1-.529,6.18,0,.425.052.745-.371.958-7.668-.693-14.808-2.609-22.424-3.409-1.751-.3-3.505-.224-5.169-.575l-2.129-.224c-6.611.213-13.222.586-19.41,2.185-1.321.424-2.8.531-4.125,1.01-.952-.159-1.745.534-2.644.268l-1.741.406A1.448,1.448,0,0,1,56.661-24c-.846-2.185,1.693-3.516.9-5.646a3.87,3.87,0,0,0-3.649-2.185,4.419,4.419,0,0,0-4.232,2.185c-1.215,2.661.319,5.432.793,8.042-.106.852.848,1.81,0,2.505A7.233,7.233,0,0,0,44.5-20.328c-.634.32-1.8-.107-2.114.641,2.273,1.224,5.182,1.065,7.72.958.318-.107.529-.161.794.052.213,1.385-.265,3.25.583,4.474.951,1.279,2.539,1.6,4.071,1.758,4.868-.159,9.2-1.6,13.645-2.716.689-.052,1.216-.425,1.958-.425A38.664,38.664,0,0,1,78.662-16.6,13.255,13.255,0,0,0,76.439-11.8c-.633,1.438,1.111,1.651,1.64,2.451-1.64.479-2.8,1.6-4.337,2.237-3.385-.107-6.241,1.172-9.415,1.544-.052.693,1.111.479,1.218,1.172-.158.479-.634.531-1,.8-.053.318,0,.372.317.427.317-.375,1.005-.109,1.322-.482,1.057,0,1.957-.318,2.961-.372a9.875,9.875,0,0,0,2.7-1.065c1.11-.32,1.8-1.065,2.908-1.385,1.587,0,3.014-.531,4.495-.638v.32C78.026-4.828,76.758-2.8,75.488-.94a.6.6,0,0,0,.37.854,2.731,2.731,0,0,0,2.062-.32c1.111-1.917,2.116-3.729,3.016-5.7.371-1.81,1.692-2.768,3.015-3.995.211-.107.529-.424.74-.107a24.386,24.386,0,0,0-2.537,3.729c-.425,1.492-.531,3.409.792,4.635.635.534,1.586.372,2.434.427,2.061-1.065,4.706.638,6.294-1.385.951-.161,1.108.958,1.638,1.492.9.266,1.851,1.169,2.751.531-.054-.586-.688-1.12-1-1.651-.635-1.12-1.428-2.026-2.01-3.036A10.6,10.6,0,0,1,92.2-7.437a16.881,16.881,0,0,0,2.857,1.12c.9.372,2.01.318,2.856.852a9.7,9.7,0,0,0,2.644,2.023c1.32.641,2.8.747,4.177,1.279.53.052,1.324.479,1.693,0a2.253,2.253,0,0,0-.792-.586c-.16-.693.951-.32,1.322-.852a.75.75,0,0,0-.614-.4c-.758-.406-2.642-.547-3.142-.823a12.038,12.038,0,0,1-1.85-.586c-3.174,0-4.919-2.875-7.458-3.94.581-.534,1.481-.958,1.852-1.758a2.965,2.965,0,0,0,.159-2.823c-.477-1.651-2.592-1.44-3.808-2.344l.159-.161a22.1,22.1,0,0,1,5.711.747c5.076.69,9.783,2.609,15.073,2.716,2.908,0,6.556.159,7.985-2.664.263-1.651.581-3.3.846-4.953.635-2.664,2.379-5.115,2.115-8.044h0"/>
      </g>
    </g>
  </g>
</svg>
