<?xml version="1.0" encoding="utf-8"?>
<!-- Generator: Adobe Illustrator 21.1.0, SVG Export Plug-In . SVG Version: 6.00 Build 0)  -->
<svg version="1.1" id="Layer_1" focusable="false" xmlns="http://www.w3.org/2000/svg" xmlns:xlink="http://www.w3.org/1999/xlink"
	 x="0px" y="0px" viewBox="0 0 448 448" style="enable-background:new 0 0 448 448;" xml:space="preserve">
<style type="text/css">
	.st0{fill:#0F6493;}
</style>
<path class="st0" d="M448,48v352c0,26.5-21.5,48-48,48H48c-26.5,0-48-21.5-48-48V48C0,21.5,21.5,0,48,0h352C426.5,0,448,21.5,448,48
	z M360,64H248c-21.3,0-32.1,25.9-17,41l32,32L67.5,332.5c-4.7,4.7-4.7,12.3,0,17l31,31c4.7,4.7,12.3,4.7,17,0L311,185l32,32
	c15,15,41,4.5,41-17V88C384,74.7,373.3,64,360,64z"/>
</svg>
